<?xml version="1.0" encoding="UTF-8" standalone="no"?>
<svg
   xmlns:dc="http://purl.org/dc/elements/1.1/"
   xmlns:cc="http://creativecommons.org/ns#"
   xmlns:rdf="http://www.w3.org/1999/02/22-rdf-syntax-ns#"
   xmlns:svg="http://www.w3.org/2000/svg"
   xmlns="http://www.w3.org/2000/svg"
   id="svg13856"
   version="1.1"
   viewBox="0 0 26.458333 25.401623"
   height="25.401625mm"
   width="26.458334mm">
  <defs
     id="defs13850">
    <clipPath
       id="bjm-2">
      <path
         d="m 478,728 h 16 v 14.438 h -16 z"
         id="path15320-3" />
    </clipPath>
    <clipPath
       id="bjl-2">
      <path
         d="m 492.71,728.03 c 0.875,1.4336 1.3828,3.1211 1.3828,4.9297 0,5.2266 -4.2383,9.4648 -9.4648,9.4648 -2.3516,0 -4.5039,-0.85937 -6.1602,-2.2812 0.0117,0.0156 0.0195,0.0273 0.0273,0.043 1.6523,1.4062 3.793,2.25 6.1328,2.25 5.2383,0 9.4844,-4.2422 9.4844,-9.4766 0,-1.7891 -0.4961,-3.4648 -1.3555,-4.8906 -0.0195,-0.0117 -0.0352,-0.0273 -0.0469,-0.0391"
         id="path15323-6" />
    </clipPath>
    <clipPath
       id="bjk-7">
      <path
         d="m 475.16,732.96 c 0,5.2344 4.2422,9.4766 9.4766,9.4766 5.2383,0 9.4844,-4.2422 9.4844,-9.4766 0,-5.2344 -4.2461,-9.4844 -9.4844,-9.4844 -5.2344,0 -9.4766,4.25 -9.4766,9.4844"
         id="path15326-7" />
    </clipPath>
  </defs>
  <metadata
     id="metadata13853">
    <rdf:RDF>
      <cc:Work
         rdf:about="">
        <dc:format>image/svg+xml</dc:format>
        <dc:type
           rdf:resource="http://purl.org/dc/dcmitype/StillImage" />
        <dc:title></dc:title>
      </cc:Work>
    </rdf:RDF>
  </metadata>
  <g
     transform="translate(137.64572,-192.24164)"
     id="layer1">
    <g
       style="fill:#000000"
       transform="matrix(2.8222271,0,0,2.8222271,-241.75737,-289.77048)"
       id="g6567">
      <path
         style="fill:#000000;stroke-width:0.26458332"
         d="m 37.103144,179.68693 v -0.0259 c 0,-0.0143 -0.0077,-0.0214 -0.01429,-0.0286 0.0066,-0.007 0.01429,-0.0143 0.01429,-0.0365 0,-0.0254 -0.02196,-0.032 -0.0471,-0.032 h -0.06138 v 0.14473 h 0.01826 v -0.0616 h 0.04313 c 0.02196,0 0.02196,0.0143 0.02196,0.0214 0,0.003 0.0034,0.0254 0.0034,0.0402 h 0.0291 v -0.0151 c -0.0074,0 -0.0074,0 -0.0074,-0.007 z m -0.04736,-0.0616 h -0.04286 v -0.0397 h 0.05054 c 0.0069,0 0.01773,0 0.01773,0.018 0,0.0146 -0.01085,0.0217 -0.0254,0.0217 z"
         id="path4535" />
      <path
         style="fill:#000000;stroke-width:0.26458332"
         d="m 37.041496,179.48081 c -0.08281,0 -0.151606,0.0685 -0.151606,0.15161 0,0.0905 0.06879,0.15902 0.151606,0.15902 0.09022,0 0.15875,-0.0685 0.15875,-0.15902 0,-0.0831 -0.06853,-0.15161 -0.15875,-0.15161 z m 0,0.28179 c -0.07594,0 -0.129646,-0.054 -0.129646,-0.13018 0,-0.0685 0.05398,-0.13017 0.129646,-0.13017 0.07567,0 0.137054,0.0616 0.137054,0.13017 0,0.0762 -0.06112,0.13018 -0.137054,0.13018 z"
         id="path4537" />
      <path
         style="fill:#000000;stroke-width:0.26458332"
         d="m 45.750257,176.10156 h 0.459845 v -0.22252 h -0.498739 c -0.260879,0 -0.358246,0.16431 -0.358246,0.31247 0,0.33153 0.2921,0.31592 0.522023,0.32438 0.04657,0 0.07382,0.007 0.08943,0.0233 0.01561,0.0114 0.03096,0.0429 0.03096,0.0738 0,0.0275 -0.01561,0.0508 -0.03096,0.0664 -0.01535,0.0156 -0.05053,0.0235 -0.0971,0.0235 h -0.483129 v 0.22305 h 0.483129 c 0.252677,0 0.397404,-0.10557 0.397404,-0.32835 0,-0.1053 -0.03148,-0.17145 -0.07435,-0.22622 -0.06191,-0.0505 -0.151871,-0.0823 -0.2921,-0.0823 h -0.136525 c -0.03466,0 -0.06615,-0.007 -0.0971,-0.0156 -0.02752,-0.0117 -0.05106,-0.0352 -0.05106,-0.0741 0,-0.0349 0.01614,-0.0587 0.03916,-0.0823 0.01984,-0.0156 0.0508,-0.0156 0.09737,-0.0156 z"
         id="path4539" />
      <path
         style="fill:#000000;stroke-width:0.26458332"
         d="m 40.000067,175.14112 v -1.05146 h -0.408781 l -0.307975,0.71385 -0.32729,-0.71385 h -0.401108 v 0.99219 l -0.428361,-0.99219 H 37.7564 l -0.448204,1.05146 h 0.269081 l 0.09366,-0.23178 h 0.525727 l 0.09366,0.23178 h 0.510381 v -0.82391 l 0.366183,0.82391 h 0.214313 l 0.366448,-0.82391 v 0.82391 z m -2.239962,-0.45508 0.175418,-0.41566 0.170921,0.41566 z"
         id="path4541" />
      <path
         style="fill:#000000;stroke-width:0.26458332"
         d="m 45.189604,177.16492 v -0.0902 c -0.07435,0.0587 -0.210872,0.0902 -0.335491,0.0902 h -2.045229 v -0.33761 c 0,-0.0471 -0.0077,-0.0471 -0.04657,-0.0471 h -0.03519 v 0.38471 h -0.673893 v -0.40058 c -0.113242,0.0548 -0.237596,0.0548 -0.350838,0.0548 h -0.07382 v 0.34581 h -0.821795 l -0.194734,-0.22781 -0.214577,0.22781 h -1.320535 v -1.47506 h 1.344083 l 0.191029,0.22755 0.210344,-0.22755 h 0.903552 c 0.105304,0 0.277019,0.0159 0.350838,0.0902 v -0.0902 h 0.806714 c 0.08123,0 0.237067,0.0159 0.342636,0.0902 v -0.0902 h 1.215495 v 0.0902 c 0.07038,-0.059 0.194734,-0.0902 0.307975,-0.0902 h 0.678127 v 0.0902 c 0.07382,-0.0508 0.179388,-0.0902 0.315648,-0.0902 h 0.459317 v -4.89849 h -8.901906 v 3.7883 l 0.303742,-0.69797 h 0.650345 l 0.08996,0.17251 v -0.17251 h 0.759354 l 0.171185,0.37227 0.167482,-0.37227 h 2.423318 c 0.112713,0 0.210344,0.0196 0.284163,0.0825 v -0.0825 h 0.666221 v 0.0825 c 0.109008,-0.063 0.253206,-0.0825 0.416454,-0.0825 h 0.962818 l 0.08996,0.17251 v -0.17251 h 0.708554 l 0.105304,0.17251 v -0.17251 h 0.693473 v 1.47109 h -0.701146 l -0.136525,-0.22384 v 0.22384 h -0.872331 l -0.09763,-0.23919 h -0.214577 l -0.09763,0.23919 H 43.2174 c -0.178858,0 -0.311679,-0.0434 -0.401108,-0.0902 v 0.0902 h -1.083204 v -0.33761 c 0,-0.0468 -0.0077,-0.0548 -0.03863,-0.0548 h -0.03466 v 0.39238 h -2.092325 v -0.18839 l -0.07408,0.18839 h -0.440002 l -0.07382,-0.18045 v 0.18071 h -0.845608 l -0.08943,-0.23918 H 37.83022 l -0.09763,0.23918 h -0.4318 v 4.43891 h 8.901641 v -2.69372 c -0.09366,0.0429 -0.229922,0.0667 -0.362214,0.0667 z"
         id="path4543" />
      <polygon
         style="fill:#000000"
         points="13.419,14.825 15.598,14.825 15.598,14.01 13.419,14.01 13.419,13.298 15.629,13.298 15.629,12.468 12.463,12.468 12.463,16.442 15.629,16.442 15.629,15.625 13.419,15.625 "
         id="polygon4545"
         transform="matrix(0.26458333,0,0,0.26458333,36.88989,170.79084)" />
      <polygon
         style="fill:#000000"
         points="25.611,21.673 27.791,21.673 27.791,20.872 25.611,20.872 25.611,20.146 27.833,20.146 27.833,19.316 24.683,19.316 24.683,23.29 27.833,23.29 27.833,22.474 25.611,22.474 "
         id="polygon4547"
         transform="matrix(0.26458333,0,0,0.26458333,36.88989,170.79084)" />
      <path
         style="fill:#000000;stroke-width:0.26458332"
         d="m 41.733352,175.90153 h -0.798247 l -0.323321,0.34528 -0.303742,-0.34528 h -1.009385 v 1.05146 h 0.993245 l 0.319882,-0.34529 0.30771,0.34529 h 0.482865 v -0.35322 h 0.315383 c 0.214577,0 0.432594,-0.0587 0.432594,-0.35296 0,-0.28601 -0.22225,-0.34528 -0.416984,-0.34528 z m -1.569508,0.83556 h -0.619389 v -0.21194 h 0.552979 v -0.21193 h -0.552979 v -0.19208 h 0.627062 l 0.276754,0.30559 z m 0.993246,0.12541 -0.385763,-0.43551 0.385763,-0.41169 z m 0.576262,-0.4744 h -0.330729 v -0.26696 h 0.330729 c 0.08996,0 0.148432,0.036 0.148432,0.12567 0,0.09 -0.05847,0.14129 -0.148432,0.14129 z"
         id="path4549" />
      <path
         style="fill:#000000;stroke-width:0.26458332"
         d="m 44.889302,176.70295 h -0.483129 v 0.22305 h 0.483129 c 0.253207,0 0.397405,-0.10557 0.397405,-0.32835 0,-0.1053 -0.03149,-0.17145 -0.07382,-0.22622 -0.06191,-0.0505 -0.151871,-0.0823 -0.292365,-0.0823 h -0.136525 c -0.03466,0 -0.06615,-0.007 -0.0971,-0.0156 -0.02752,-0.0117 -0.05053,-0.0352 -0.05053,-0.0741 0,-0.0349 0.0077,-0.0587 0.03863,-0.0823 0.01958,-0.0156 0.05106,-0.0156 0.09763,-0.0156 h 0.459317 v -0.22252 h -0.49874 c -0.268287,0 -0.358246,0.16431 -0.358246,0.31247 0,0.33153 0.2921,0.31592 0.522023,0.32438 0.04657,0 0.07435,0.007 0.08996,0.0233 0.01561,0.0114 0.03096,0.0429 0.03096,0.0738 0,0.0275 -0.01561,0.0508 -0.03096,0.0664 -0.02381,0.0153 -0.05107,0.0235 -0.09763,0.0235 z"
         id="path4551" />
      <path
         style="fill:#000000;stroke-width:0.26458332"
         d="m 43.275873,176.18808 c 0,-0.12145 -0.04286,-0.18839 -0.124618,-0.23575 -0.08176,-0.0429 -0.179388,-0.0508 -0.307446,-0.0508 h -0.573088 v 1.05146 h 0.253736 v -0.38418 h 0.268816 c 0.08996,0 0.139965,0.007 0.178859,0.0468 0.04339,0.0508 0.04339,0.14102 0.04339,0.21167 v 0.12594 h 0.248973 v -0.20426 c 0,-0.0942 -0.0077,-0.14076 -0.03863,-0.19182 -0.02381,-0.0318 -0.06615,-0.0709 -0.128587,-0.0905 0.06959,-0.0241 0.178593,-0.11403 0.178593,-0.2786 z m -0.326496,0.14869 c -0.03916,0.0161 -0.07435,0.0161 -0.120914,0.0161 l -0.303742,0.008 v -0.23918 h 0.303742 c 0.04657,0 0.08943,0 0.120914,0.0196 0.03096,0.0164 0.05001,0.0474 0.05001,0.0902 0,0.0471 -0.01905,0.082 -0.05001,0.10557 z"
         id="path4553" />
      <path
         style="fill:#000000;stroke-width:0.26458332"
         d="m 42.208809,174.37594 c 0,-0.1217 -0.05054,-0.18811 -0.132292,-0.23918 -0.08229,-0.0471 -0.170921,-0.0471 -0.300302,-0.0471 h -0.572294 v 1.05146 h 0.245269 v -0.38047 h 0.268552 c 0.08996,0 0.148431,0.008 0.18759,0.0431 0.04233,0.055 0.03466,0.14472 0.03466,0.20399 v 0.13335 h 0.25744 v -0.20823 c 0,-0.0902 -0.0082,-0.13705 -0.0471,-0.18812 -0.02328,-0.0315 -0.06615,-0.0664 -0.120386,-0.0902 0.06985,-0.0315 0.178859,-0.11377 0.178859,-0.27861 z m -0.327025,0.14156 c -0.03916,0.0233 -0.07382,0.0233 -0.125148,0.0233 H 41.44919 v -0.23151 h 0.307446 c 0.04339,0 0.09366,0 0.125148,0.0159 0.03096,0.0196 0.04657,0.0508 0.04657,0.0979 -2.64e-4,0.0434 -0.01561,0.0826 -0.04657,0.0945 z"
         id="path4555" />
      <path
         style="fill:#000000;stroke-width:0.26458332"
         d="m 43.24915,174.31721 h 0.237596 v -0.22728 H 43.24915 c -0.17145,0 -0.307975,0.0394 -0.381264,0.12144 -0.113242,0.11404 -0.132821,0.25506 -0.137054,0.41196 0,0.18838 0.04709,0.30983 0.128587,0.40031 0.08996,0.0902 0.245533,0.11774 0.366448,0.11774 h 0.2921 l 0.0971,-0.23177 h 0.522552 l 0.09763,0.23177 h 0.506413 v -0.78872 l 0.471223,0.78872 h 0.358246 v -1.05145 H 45.31422 v 0.72946 l -0.440266,-0.72946 h -0.385498 v 0.99219 l -0.420688,-0.99219 h -0.370417 l -0.35851,0.82762 h -0.112712 c -0.06615,0 -0.136525,-0.0156 -0.17145,-0.0508 -0.04657,-0.055 -0.06667,-0.13732 -0.06667,-0.25136 0,-0.10954 0.02011,-0.19209 0.06667,-0.23892 0.05027,-0.0437 0.105039,-0.0593 0.194468,-0.0593 z m 0.627327,-0.0468 0.170921,0.41566 h -0.342635 z"
         id="path4557" />
      <rect
         style="fill:#000000;stroke-width:0.26458332"
         x="42.353008"
         y="174.08966"
         width="0.25320625"
         height="1.0514542"
         id="rect4559" />
    </g>
  </g>
</svg>
