<?xml version="1.0" encoding="UTF-8" standalone="no"?>
<svg
   xmlns:dc="http://purl.org/dc/elements/1.1/"
   xmlns:cc="http://creativecommons.org/ns#"
   xmlns:rdf="http://www.w3.org/1999/02/22-rdf-syntax-ns#"
   xmlns:svg="http://www.w3.org/2000/svg"
   xmlns="http://www.w3.org/2000/svg"
   id="svg13856"
   version="1.1"
   viewBox="0 0 26.458334 6.9026134"
   height="6.9026136mm"
   width="26.458334mm">
  <defs
     id="defs13850">
    <clipPath
       id="bjm-2">
      <path
         d="m 478,728 h 16 v 14.438 h -16 z"
         id="path15320-3" />
    </clipPath>
    <clipPath
       id="bjl-2">
      <path
         d="m 492.71,728.03 c 0.875,1.4336 1.3828,3.1211 1.3828,4.9297 0,5.2266 -4.2383,9.4648 -9.4648,9.4648 -2.3516,0 -4.5039,-0.85937 -6.1602,-2.2812 0.0117,0.0156 0.0195,0.0273 0.0273,0.043 1.6523,1.4062 3.793,2.25 6.1328,2.25 5.2383,0 9.4844,-4.2422 9.4844,-9.4766 0,-1.7891 -0.4961,-3.4648 -1.3555,-4.8906 -0.0195,-0.0117 -0.0352,-0.0273 -0.0469,-0.0391"
         id="path15323-6" />
    </clipPath>
    <clipPath
       id="bjk-7">
      <path
         d="m 475.16,732.96 c 0,5.2344 4.2422,9.4766 9.4766,9.4766 5.2383,0 9.4844,-4.2422 9.4844,-9.4766 0,-5.2344 -4.2461,-9.4844 -9.4844,-9.4844 -5.2344,0 -9.4766,4.25 -9.4766,9.4844"
         id="path15326-7" />
    </clipPath>
  </defs>
  <metadata
     id="metadata13853">
    <rdf:RDF>
      <cc:Work
         rdf:about="">
        <dc:format>image/svg+xml</dc:format>
        <dc:type
           rdf:resource="http://purl.org/dc/dcmitype/StillImage" />
        <dc:title></dc:title>
      </cc:Work>
    </rdf:RDF>
  </metadata>
  <g
     transform="translate(197.96505,-73.476333)"
     id="layer1">
    <g
       transform="matrix(0.76691064,0,0,0.76691064,-240.13265,-47.094872)"
       id="g7665">
      <path
         style="fill:#000000;stroke-width:0.26458332"
         d="m 67.701264,159.15322 c 0,-0.42597 -0.22066,-0.39766 -0.43206,-0.40243 v -0.12303 c 0.18309,0.009 0.37094,0.009 0.55456,0.009 0.19738,0 0.46567,-0.009 0.8136,-0.009 1.21735,0 1.87986,0.81862 1.87986,1.65682 0,0.46858 -0.27225,1.64703 -1.93648,1.64703 -0.23972,0 -0.46091,-0.009 -0.68183,-0.009 -0.21167,0 -0.41831,0.005 -0.62971,0.009 v -0.12303 c 0.28151,-0.0286 0.41804,-0.0381 0.43206,-0.35983 z m 0.46091,2.21986 v 0 c 0,0.36486 0.25876,0.40693 0.48895,0.40693 1.016,0 1.34937,-0.77153 1.34937,-1.47664 0,-0.88503 -0.56409,-1.524 -1.47135,-1.524 -0.19288,0 -0.28178,0.014 -0.36697,0.0188 z"
         id="path5159" />
      <path
         style="fill:#000000;stroke-width:0.26458332"
         d="m 70.682594,161.80858 h 0.0889 c 0.1315,0 0.22595,0 0.22595,-0.15663 v -1.28217 c 0,-0.20823 -0.0709,-0.23707 -0.24474,-0.331 v -0.0759 c 0.22093,-0.0667 0.48445,-0.1561 0.50297,-0.17039 0.0331,-0.0193 0.0609,-0.0243 0.0847,-0.0243 0.0233,0 0.0331,0.0286 0.0331,0.0669 v 1.81689 c 0,0.15663 0.10346,0.15663 0.23495,0.15663 h 0.0799 v 0.1233 c -0.16007,0 -0.32465,-0.009 -0.49345,-0.009 -0.16933,0 -0.3384,0.005 -0.51223,0.009 z m 0.50271,-2.76886 v 0 c -0.12251,0 -0.23019,-0.11351 -0.23019,-0.2368 0,-0.11854 0.11271,-0.22781 0.23019,-0.22781 0.12197,0 0.23045,0.10001 0.23045,0.22781 0,0.12832 -0.10372,0.2368 -0.23045,0.2368 z"
         id="path5161" />
      <path
         style="fill:#000000;stroke-width:0.26458332"
         d="m 72.135154,160.39782 c 0,-0.17489 -0.0521,-0.22198 -0.27279,-0.31194 v -0.09 c 0.20215,-0.0664 0.3945,-0.12753 0.62019,-0.22754 0.014,0 0.0283,0.0101 0.0283,0.0476 v 0.30771 c 0.26829,-0.19394 0.49821,-0.35534 0.81386,-0.35534 0.39872,0 0.54001,0.29369 0.54001,0.66305 v 1.22078 c 0,0.15664 0.10345,0.15664 0.23522,0.15664 h 0.0847 v 0.12329 c -0.16483,0 -0.32914,-0.009 -0.49847,-0.009 -0.16934,0 -0.33867,0.004 -0.50774,0.009 v -0.12329 h 0.0841 c 0.13229,0 0.22542,0 0.22542,-0.15664 v -1.22528 c 0,-0.27014 -0.16324,-0.40243 -0.43153,-0.40243 -0.15028,0 -0.39026,0.12329 -0.54584,0.22727 v 1.40044 c 0,0.15664 0.10372,0.15664 0.23575,0.15664 h 0.0841 v 0.12329 c -0.1643,0 -0.32914,-0.01 -0.49873,-0.01 -0.16907,0 -0.33841,0.005 -0.50748,0.01 v -0.12329 h 0.0847 c 0.13176,0 0.22596,0 0.22596,-0.15664 v -1.25439 z"
         id="path5163" />
      <path
         style="fill:#000000;stroke-width:0.26458332"
         d="m 74.542334,160.62537 c -0.0101,0.0429 -0.0101,0.1135 0,0.27463 0.0278,0.44953 0.31485,0.81836 0.6903,0.81836 0.25823,0 0.4609,-0.14182 0.63447,-0.31671 l 0.0656,0.0664 c -0.21642,0.28866 -0.48445,0.53446 -0.86862,0.53446 -0.74798,0 -0.89853,-0.72892 -0.89853,-1.03161 0,-0.92789 0.62071,-1.20253 0.94959,-1.20253 0.38047,0 0.78952,0.2413 0.79402,0.74348 0,0.0286 0,0.0566 -0.004,0.0852 l -0.0426,0.0283 z m 0.83185,-0.15135 v 0 c 0.11642,0 0.1307,-0.0619 0.1307,-0.11826 0,-0.2413 -0.14525,-0.43551 -0.40825,-0.43551 -0.28681,0 -0.48445,0.21273 -0.54054,0.55377 z"
         id="path5165" />
      <path
         style="fill:#000000;stroke-width:0.26458332"
         d="m 76.017384,161.80858 h 0.127 c 0.13097,0 0.22516,0 0.22516,-0.15663 v -1.32953 c 0,-0.14685 -0.17357,-0.17516 -0.24447,-0.21326 v -0.0706 c 0.34316,-0.14711 0.53154,-0.2704 0.57414,-0.2704 0.0278,0 0.0418,0.0143 0.0418,0.0619 v 0.42571 h 0.01 c 0.11721,-0.18441 0.31406,-0.48789 0.6006,-0.48789 0.11721,0 0.26776,0.0807 0.26776,0.25109 0,0.12779 -0.0886,0.24183 -0.22013,0.24183 -0.14658,0 -0.14658,-0.11404 -0.31063,-0.11404 -0.0802,0 -0.34237,0.10875 -0.34237,0.39291 v 1.11178 c 0,0.15663 0.0937,0.15663 0.22463,0.15663 h 0.263 v 0.1233 c -0.2585,-0.005 -0.45429,-0.009 -0.65696,-0.009 -0.19262,0 -0.39,0.005 -0.55906,0.009 v -0.12277 z"
         id="path5167" />
      <path
         style="fill:#000000;stroke-width:0.26458332"
         d="m 77.826074,161.2736 c 0.0616,0.31273 0.24924,0.57785 0.59293,0.57785 0.27702,0 0.38047,-0.17066 0.38047,-0.33629 0,-0.55854 -1.02499,-0.37862 -1.02499,-1.14062 0,-0.26511 0.21167,-0.60616 0.72946,-0.60616 0.15028,0 0.35216,0.0429 0.53525,0.13785 l 0.0331,0.48233 h -0.10795 c -0.0471,-0.29765 -0.21114,-0.46831 -0.51276,-0.46831 -0.18865,0 -0.36698,0.10875 -0.36698,0.31247 0,0.55404 1.09088,0.38312 1.09088,1.12607 0,0.31247 -0.24898,0.64373 -0.80936,0.64373 -0.18812,0 -0.40878,-0.0659 -0.57309,-0.16034 l -0.0519,-0.54451 z"
         id="path5169" />
      <path
         style="fill:#000000;stroke-width:0.26458332"
         d="m 83.420954,159.48448 h -0.11721 c -0.0894,-0.55324 -0.47969,-0.77628 -1.00594,-0.77628 -0.54108,0 -1.32663,0.36433 -1.32663,1.50045 0,0.95673 0.67787,1.64253 1.4015,1.64253 0.46514,0 0.85117,-0.322 0.94509,-0.81862 l 0.10743,0.028 -0.10743,0.69056 c -0.19737,0.12356 -0.72866,0.25109 -1.03928,0.25109 -1.09987,0 -1.79546,-0.71464 -1.79546,-1.77959 0,-0.97049 0.86016,-1.66635 1.78144,-1.66635 0.38047,0 0.74771,0.12356 1.1094,0.25109 z"
         id="path5171" />
      <path
         style="fill:#000000;stroke-width:0.26458332"
         d="m 83.590814,161.80858 h 0.0886 c 0.13203,0 0.22622,0 0.22622,-0.15663 v -2.63578 c 0,-0.30797 -0.0707,-0.3175 -0.24924,-0.36936 v -0.0754 c 0.18812,-0.0614 0.38497,-0.14685 0.48445,-0.204 0.0511,-0.028 0.0889,-0.0519 0.10266,-0.0519 0.0288,0 0.0384,0.0283 0.0384,0.0664 v 3.27025 c 0,0.15664 0.10345,0.15664 0.23521,0.15664 h 0.0791 v 0.12329 c -0.15875,0 -0.32358,-0.009 -0.49265,-0.009 -0.16907,0 -0.33841,0.004 -0.5125,0.009 v -0.12356 z"
         id="path5173" />
      <path
         style="fill:#000000;stroke-width:0.26458332"
         d="m 86.608924,161.67126 c 0,0.0855 0.0516,0.0902 0.13149,0.0902 0.0564,0 0.12674,-0.005 0.18812,-0.005 v 0.0995 c -0.20267,0.0185 -0.58817,0.11827 -0.67759,0.14631 l -0.0233,-0.0143 v -0.38285 c -0.28151,0.23178 -0.49847,0.39714 -0.83238,0.39714 -0.25347,0 -0.51726,-0.16536 -0.51726,-0.56277 v -1.21179 c 0,-0.12329 -0.0185,-0.24156 -0.28125,-0.26511 v -0.09 c 0.16933,-0.005 0.54504,-0.0333 0.60563,-0.0333 0.0526,0 0.0526,0.0333 0.0526,0.13732 v 1.22079 c 0,0.14235 0,0.54954 0.40826,0.54954 0.16007,0 0.37147,-0.1233 0.56859,-0.2884 v -1.2737 c 0,-0.0942 -0.22569,-0.14632 -0.39423,-0.19394 v -0.0849 c 0.42254,-0.0283 0.68606,-0.0664 0.73316,-0.0664 0.0381,0 0.0381,0.0328 0.0381,0.0855 z"
         id="path5175" />
      <path
         style="fill:#000000;stroke-width:0.26458332"
         d="m 87.544484,160.10943 c 0.18786,-0.16087 0.44186,-0.34105 0.70035,-0.34105 0.54558,0 0.87419,0.4789 0.87419,0.99404 0,0.61992 -0.45138,1.2401 -1.12422,1.2401 -0.34739,0 -0.53049,-0.1135 -0.65299,-0.16536 l -0.14076,0.10848 -0.0984,-0.0516 c 0.0418,-0.2794 0.0656,-0.55403 0.0656,-0.84243 v -2.03544 c 0,-0.30797 -0.0709,-0.3175 -0.24924,-0.36936 v -0.0754 c 0.18838,-0.0614 0.3855,-0.14685 0.48392,-0.204 0.0519,-0.0283 0.0894,-0.0519 0.10451,-0.0519 0.0275,0 0.037,0.0283 0.037,0.0664 z m 0,1.28746 v 0 c 0,0.17992 0.16907,0.48287 0.48366,0.48287 0.50324,0 0.71464,-0.49742 0.71464,-0.91837 0,-0.51118 -0.38497,-0.93716 -0.75194,-0.93716 -0.1741,0 -0.31989,0.11404 -0.44662,0.22305 v 1.14961 z"
         id="path5177" />
      <path
         style="fill:#000000;stroke-width:0.26458332"
         d="m 67.263644,164.68407 h 0.0362 c 0.0921,0 0.18918,-0.0127 0.18918,-0.1471 v -1.34911 c 0,-0.13441 -0.0971,-0.14711 -0.18918,-0.14711 h -0.0362 v -0.0773 c 0.10028,0 0.25347,0.0101 0.37941,0.0101 0.12753,0 0.28099,-0.0101 0.40111,-0.0101 v 0.0773 h -0.0357 c -0.0921,0 -0.18917,0.0127 -0.18917,0.14711 v 1.34911 c 0,0.1344 0.0971,0.1471 0.18917,0.1471 h 0.0357 v 0.0775 c -0.1225,0 -0.27649,-0.0103 -0.40402,-0.0103 -0.12514,0 -0.27596,0.0103 -0.37623,0.0103 v -0.0775 z"
         id="path5179" />
      <path
         style="fill:#000000;stroke-width:0.26458332"
         d="m 68.044164,164.77245 c -0.12382,0 -0.27675,-0.0103 -0.40428,-0.0103 -0.12515,0 -0.27543,0.0103 -0.37597,0.0103 h -0.0109 v -0.0109 -0.0775 -0.0111 h 0.0109 0.036 c 0.0929,-0.003 0.17727,-0.0101 0.17806,-0.13599 v -1.34911 c -7.9e-4,-0.12621 -0.0852,-0.13441 -0.17806,-0.13626 h -0.0468 v -0.0109 -0.0889 h 0.0109 c 0.10054,0 0.254,0.0106 0.37914,0.0106 0.127,0 0.2802,-0.0106 0.40138,-0.0106 h 0.0114 v 0.0116 0.0881 h -0.0114 -0.036 c -0.0926,0.002 -0.1778,0.0101 -0.17833,0.13626 v 1.34911 c 5.3e-4,0.12594 0.0855,0.13335 0.17833,0.13599 h 0.0474 v 0.0111 0.0884 z m -0.0111,-0.022 v 0 -0.055 h -0.0249 c -0.0916,0 -0.20003,-0.0159 -0.20056,-0.15848 v -1.34911 c 5.3e-4,-0.14235 0.10901,-0.15849 0.20056,-0.15849 h 0.0249 v -0.0545 c -0.11774,0 -0.26617,0.01 -0.39026,0.01 -0.12171,0 -0.26882,-0.009 -0.36777,-0.01 v 0.0545 h 0.0243 c 0.0915,0 0.20055,0.0161 0.20055,0.15849 v 1.34911 c 0,0.14261 -0.109,0.15848 -0.20055,0.15848 h -0.0243 v 0.055 c 0.099,-0.001 0.24368,-0.0103 0.36459,-0.0103 0.12489,0 0.27305,0.01 0.39344,0.0103 z"
         id="path5181" />
      <path
         style="fill:#000000;stroke-width:0.26458332"
         d="m 69.801524,164.2536 0.005,-0.005 v -0.96546 c 0,-0.21141 -0.14579,-0.2421 -0.22278,-0.2421 h -0.0564 v -0.0773 c 0.12039,0 0.23813,0.0101 0.35825,0.0101 0.10477,0 0.21034,-0.0101 0.31485,-0.0101 v 0.0773 h -0.0386 c -0.10742,0 -0.2278,0.0204 -0.2278,0.32703 v 1.1721 c 0,0.09 0.003,0.17992 0.0156,0.25982 h -0.0976 l -1.31709,-1.47849 v 1.06124 c 0,0.22411 0.0431,0.30136 0.24051,0.30136 h 0.0431 v 0.0775 c -0.1098,0 -0.2196,-0.0103 -0.32993,-0.0103 -0.11483,0 -0.23257,0.0103 -0.34767,0.0103 v -0.0775 h 0.036 c 0.17647,0 0.23019,-0.12091 0.23019,-0.32676 v -1.08505 c 0,-0.1442 -0.11827,-0.23125 -0.23257,-0.23125 h -0.0336 v -0.0773 c 0.0974,0 0.19685,0.0101 0.29396,0.0101 0.077,0 0.15107,-0.0101 0.2278,-0.0101 z"
         id="path5183" />
      <path
         style="fill:#000000;stroke-width:0.26458332"
         d="m 69.949434,164.81107 -0.10531,-0.004 -1.29804,-1.4568 v 1.03188 c 0.003,0.22384 0.037,0.2876 0.22939,0.29025 h 0.0548 v 0.0111 0.0884 h -0.0114 c -0.11059,0 -0.22092,-0.0103 -0.32993,-0.0103 -0.11457,0 -0.23204,0.0103 -0.34767,0.0103 h -0.0114 v -0.0109 -0.0886 h 0.0114 0.036 c 0.16907,-0.001 0.21722,-0.11033 0.21934,-0.31565 v -1.08453 c -5.3e-4,-0.13732 -0.11219,-0.22066 -0.22172,-0.22092 h -0.045 v -0.0114 -0.0878 h 0.0114 c 0.0976,0 0.19791,0.0101 0.29369,0.0101 0.0762,0 0.15002,-0.0101 0.23654,-0.006 l 1.12421,1.2737 v -0.94721 c -10e-4,-0.20452 -0.13731,-0.22939 -0.21166,-0.23124 h -0.0677 v -0.0114 -0.0878 h 0.0114 c 0.12092,0 0.23866,0.0101 0.35825,0.0101 0.10424,0 0.20875,-0.0101 0.31459,-0.0101 h 0.0111 v 0.0111 0.0881 h -0.0111 -0.0384 c -0.1053,0.003 -0.21405,0.0124 -0.21696,0.31617 v 1.17184 c 0,0.0902 0.003,0.18018 0.0154,0.2585 l 0.002,0.013 z m -0.0971,-0.0228 v 0 h 0.0847 c -0.0116,-0.077 -0.0138,-0.16298 -0.0138,-0.24844 v -1.17184 c 0,-0.3093 0.12859,-0.33841 0.23866,-0.33841 h 0.0273 v -0.0545 c -0.10107,5.3e-4 -0.20188,0.01 -0.30348,0.01 -0.11694,0 -0.23098,-0.009 -0.34687,-0.01 l -2.6e-4,0.0545 h 0.0452 c 0.0786,0 0.23416,0.0355 0.23416,0.25348 l -0.004,0.9734 -0.006,0.006 -0.008,0.008 -1.13745,-1.29487 c -0.0759,0 -0.15002,0.01 -0.2278,0.01 -0.0939,0 -0.19024,-0.009 -0.28258,-0.01 l -5.3e-4,0.0545 h 0.0228 c 0.11985,0 0.24315,0.0923 0.24315,0.24315 v 1.08453 c 0,0.20585 -0.0569,0.33761 -0.24077,0.33867 l -0.0246,-0.001 v 0.0556 c 0.11086,-10e-4 0.2249,-0.0106 0.33629,-0.0106 0.10689,0 0.21352,0.009 0.31882,0.0106 v -0.0542 h -0.0323 c -0.20135,-0.001 -0.25135,-0.0894 -0.25135,-0.31327 v -1.09034 z m -0.0508,-0.53472 v 0 l 0.008,-0.007 z m -0.006,-0.005 v 0 -7.9e-4 l -0.002,-0.002 z"
         id="path5185" />
      <path
         style="fill:#000000;stroke-width:0.26458332"
         d="m 70.583374,163.09208 c -0.19182,0 -0.19897,0.0466 -0.23707,0.23442 h -0.077 c 0.0101,-0.0717 0.0228,-0.14367 0.0304,-0.21881 0.0103,-0.072 0.0153,-0.14394 0.0153,-0.21881 h 0.0617 c 0.0204,0.0775 0.0841,0.0749 0.15372,0.0749 h 1.31948 c 0.0691,0 0.13282,-0.002 0.13811,-0.0799 l 0.0611,0.0101 c -0.01,0.0699 -0.0204,0.13917 -0.0278,0.20876 -0.005,0.0696 -0.005,0.13891 -0.005,0.20823 l -0.077,0.0288 c -0.006,-0.095 -0.0182,-0.24792 -0.18944,-0.24792 h -0.41963 v 1.37054 c 0,0.19844 0.0897,0.22146 0.21193,0.22146 h 0.0489 v 0.0775 c -0.0998,0 -0.27913,-0.0103 -0.41672,-0.0103 -0.15319,0 -0.33284,0.0103 -0.43286,0.0103 v -0.0775 h 0.0492 c 0.14075,0 0.21193,-0.013 0.21193,-0.2159 v -1.37583 z"
         id="path5187" />
      <path
         style="fill:#000000;stroke-width:0.26458332"
         d="m 71.591964,164.77245 c -0.10081,0 -0.27993,-0.0103 -0.41725,-0.0103 -0.15319,0 -0.33205,0.0103 -0.43286,0.0103 h -0.0101 v -0.0109 -0.0886 h 0.0103 0.0492 c 0.14102,-0.004 0.19738,-0.006 0.20108,-0.20479 v -1.36498 h -0.40878 v -0.0111 -0.0114 h 0.43074 v 1.38721 c 0,0.20664 -0.0828,0.22728 -0.22304,0.22781 h -0.0378 v 0.0537 c 0.1008,-5.3e-4 0.27278,-0.01 0.42148,-0.01 0.13361,0 0.30427,0.009 0.4056,0.01 v -0.0534 h -0.0376 c -0.12356,-5.3e-4 -0.22331,-0.031 -0.22331,-0.23336 v -1.38192 h 0.43075 c 0.17145,7.9e-4 0.19394,0.1479 0.19976,0.24342 l 0.0553,-0.0204 c 0,-0.0675 0,-0.13467 0.005,-0.20267 0.007,-0.0664 0.0167,-0.13202 0.0262,-0.19738 l -0.0392,-0.007 c -0.0116,0.0751 -0.0836,0.0788 -0.14764,0.0783 h -1.31947 -0.0132 c -0.0603,0 -0.12621,-0.003 -0.14896,-0.0751 h -0.0423 c -5.3e-4,0.0714 -0.005,0.14049 -0.0151,0.20902 -0.008,0.0709 -0.0193,0.13891 -0.0288,0.20664 h 0.0548 c 0.0339,-0.17939 0.0558,-0.2376 0.24659,-0.23495 v 0.0114 0.0111 c -0.18891,0.004 -0.18494,0.0357 -0.22648,0.22595 l -0.002,0.009 h -0.009 -0.09 l 0.002,-0.0135 c 0.0103,-0.0717 0.0233,-0.14393 0.0307,-0.21881 0.0106,-0.0714 0.0159,-0.14287 0.0159,-0.21696 v -0.0111 h 0.0106 0.0706 l 0.002,0.008 c 0.0175,0.0651 0.0651,0.0653 0.13017,0.0664 h 0.0132 1.31948 c 0.0712,-0.001 0.12303,-0.002 0.127,-0.0696 l 10e-4,-0.0119 0.0114,0.003 0.0722,0.0111 -0.002,0.0111 c -0.0103,0.0693 -0.0201,0.1389 -0.0275,0.20769 -0.006,0.0691 -0.006,0.13838 -0.006,0.2077 v 0.008 l -0.007,0.003 -0.091,0.0328 -5.3e-4,-0.0151 c -0.007,-0.0966 -0.0169,-0.23707 -0.17859,-0.23707 h -0.40852 v 1.35943 c 0.003,0.19394 0.0791,0.2077 0.20082,0.21034 h 0.0603 v 0.0108 0.0886 h -0.0114 z"
         id="path5189" />
      <path
         style="fill:#000000;stroke-width:0.26458332"
         d="m 72.131184,164.68407 h 0.0357 c 0.0923,0 0.18971,-0.0127 0.18971,-0.1471 v -1.34911 c 0,-0.13441 -0.0974,-0.14711 -0.18971,-0.14711 h -0.0357 v -0.0773 c 0.15611,0 0.42228,0.0101 0.63632,0.0101 0.21564,0 0.48128,-0.0101 0.65511,-0.0101 -0.004,0.11059 -0.002,0.28125 0.006,0.3937 l -0.077,0.0206 c -0.0124,-0.16722 -0.0431,-0.30083 -0.31167,-0.30083 h -0.3556 v 0.67442 h 0.30453 c 0.15293,0 0.18653,-0.0873 0.20188,-0.22675 h 0.0762 c -0.005,0.10081 -0.007,0.20108 -0.007,0.30163 0,0.0979 0.002,0.19579 0.007,0.29342 l -0.0762,0.0153 c -0.0154,-0.15451 -0.023,-0.25453 -0.19976,-0.25453 h -0.30639 v 0.60008 c 0,0.16748 0.1479,0.16748 0.31141,0.16748 0.30745,0 0.44265,-0.0209 0.51965,-0.31432 l 0.0717,0.0177 c -0.0339,0.13706 -0.0638,0.27305 -0.0865,0.40984 -0.16378,0 -0.45826,-0.0103 -0.68818,-0.0103 -0.23098,0 -0.53499,0.0103 -0.68077,0.0103 v -0.0773 z"
         id="path5191" />
      <path
         style="fill:#000000;stroke-width:0.26458332"
         d="m 73.499344,164.77245 c -0.16378,0 -0.45826,-0.0106 -0.68818,-0.0106 -0.23045,0 -0.53419,0.0106 -0.68024,0.0106 h -0.0109 v -0.0109 -0.0775 -0.0111 h 0.0109 0.0357 c 0.0931,-0.002 0.177,-0.0101 0.17832,-0.13599 v -1.34911 c -0.001,-0.12568 -0.0852,-0.13441 -0.17832,-0.13626 h -0.0466 v -0.0109 -0.0884 h 0.0109 c 0.1561,0 0.42227,0.0101 0.63632,0.0101 0.21511,0 0.48022,-0.0101 0.65511,-0.0101 h 0.0114 l -5.2e-4,0.0111 c -0.002,0.0392 -0.002,0.0847 -0.002,0.13335 0,0.0892 0.002,0.18653 0.007,0.25982 l 5.3e-4,0.009 -0.008,0.003 -0.0902,0.0235 -5.3e-4,-0.0135 c -0.0151,-0.16722 -0.037,-0.2884 -0.30056,-0.29078 h -0.34449 l -5.3e-4,0.65194 h 0.29395 c 0.14685,-0.002 0.1733,-0.0775 0.19077,-0.2159 l 10e-4,-0.0103 h 0.0101 0.0881 l -2.7e-4,0.0119 c -0.005,0.10002 -0.008,0.20029 -0.008,0.30084 0,0.0976 0.004,0.19526 0.008,0.29315 l 2.7e-4,0.009 -0.009,0.002 -0.0889,0.018 -0.001,-0.0122 c -0.0175,-0.15717 -0.0188,-0.24342 -0.18865,-0.24527 h -0.29581 v 0.58923 c 2.7e-4,0.15636 0.13415,0.15531 0.30084,0.15636 0.30797,-0.002 0.43206,-0.0167 0.50905,-0.30612 l 0.002,-0.01 0.0108,0.002 0.0823,0.0209 -0.003,0.0109 c -0.0331,0.13652 -0.0638,0.27252 -0.0868,0.40904 l -0.002,0.009 h -0.009 z m -0.009,-0.0228 v 0 c 0.0222,-0.12938 0.0513,-0.25956 0.0828,-0.38973 l -0.05,-0.0127 c -0.077,0.2884 -0.22543,0.3138 -0.52732,0.31194 -0.1606,0 -0.32226,0 -0.32279,-0.17859 v -0.61172 h 0.31777 c 0.17833,-0.002 0.19658,0.10663 0.20955,0.25347 l 0.055,-0.0116 c -0.005,-0.0947 -0.007,-0.18997 -0.007,-0.28442 0,-0.0968 0.003,-0.19342 0.007,-0.29025 h -0.055 c -0.0143,0.13388 -0.0561,0.22807 -0.21167,0.22622 h -0.31565 v -0.69718 h 0.36672 c 0.26617,-0.002 0.31035,0.13652 0.32173,0.29818 l 0.0553,-0.0148 c -0.005,-0.0725 -0.008,-0.1659 -0.008,-0.25189 0,-0.0439 0.001,-0.0857 0.003,-0.12197 -0.17383,5.3e-4 -0.43312,0.01 -0.64373,0.01 -0.21008,0 -0.46858,-0.009 -0.62548,-0.01 v 0.0545 h 0.0249 c 0.0916,0 0.20056,0.0161 0.20056,0.15848 v 1.34911 c 0,0.14208 -0.10901,0.15796 -0.20056,0.15902 h -0.0251 v 0.0537 c 0.14922,0 0.44503,-0.01 0.66939,-0.01 0.22596,2.7e-4 0.5133,0.01 0.67866,0.01 z"
         id="path5193" />
      <path
         style="fill:#000000;stroke-width:0.26458332"
         d="m 73.931674,163.23654 c 0,-0.18786 -0.10213,-0.19553 -0.18177,-0.19553 h -0.0466 v -0.0775 c 0.0823,0 0.24024,0.0103 0.39687,0.0103 0.15346,0 0.27649,-0.0103 0.41169,-0.0103 0.32226,0 0.60934,0.0878 0.60934,0.45376 0,0.23125 -0.15346,0.37333 -0.3556,0.45323 l 0.43709,0.65881 c 0.0717,0.10875 0.12224,0.13944 0.24738,0.15452 v 0.0778 c -0.0836,0 -0.16589,-0.0103 -0.24976,-0.0103 -0.0791,0 -0.16166,0.0103 -0.24051,0.0103 -0.19685,-0.26035 -0.36592,-0.53817 -0.53234,-0.8345 h -0.16801 v 0.55113 c 0,0.19844 0.0918,0.20584 0.20902,0.20584 h 0.0463 v 0.0775 c -0.14631,0 -0.29395,-0.0103 -0.44026,-0.0103 -0.12251,0 -0.24289,0.0103 -0.37095,0.0103 v -0.0775 h 0.0466 c 0.0947,0 0.18177,-0.0434 0.18177,-0.1389 v -1.30863 z m 0.32808,0.59743 v 0 h 0.12462 c 0.25585,0 0.39397,-0.0976 0.39397,-0.40217 0,-0.2286 -0.14605,-0.37571 -0.37386,-0.37571 -0.0765,0 -0.10901,0.008 -0.14473,0.0106 z"
         id="path5195" />
      <path
         style="fill:#000000;stroke-width:0.26458332"
         d="m 75.450384,164.77245 c -0.0852,0 -0.16642,-0.0103 -0.2503,-0.0103 -0.0781,0 -0.15981,0.0103 -0.24871,0.006 -0.19632,-0.25903 -0.36433,-0.53525 -0.52969,-0.83 h -0.15134 v 0.53975 c 0.003,0.19367 0.0802,0.19209 0.19843,0.195 h 0.0574 v 0.0111 0.0884 h -0.0114 c -0.14631,0 -0.29448,-0.0103 -0.43974,-0.0103 -0.1225,0 -0.24182,0.0103 -0.37094,0.0103 h -0.0108 v -0.0109 -0.0886 h 0.0108 0.0466 c 0.0921,-8e-4 0.16986,-0.041 0.17012,-0.1278 v -1.30836 c -0.002,-0.18283 -0.0905,-0.18203 -0.17012,-0.18468 h -0.0574 v -0.0109 -0.0886 h 0.0108 c 0.0831,0 0.2413,0.0103 0.39687,0.0103 0.15293,0 0.27544,-0.0103 0.41196,-0.0103 0.32253,5.3e-4 0.61965,0.0902 0.62018,0.46408 0,0.23256 -0.15293,0.37809 -0.34978,0.45878 l 0.42942,0.64797 c 0.0717,0.10662 0.11616,0.13335 0.23998,0.14949 l 0.009,0.001 v 0.01 0.0884 h -0.0114 z m -1.19116,-0.85699 v 0 h 0.17463 l 0.003,0.006 c 0.16696,0.2958 0.33497,0.57361 0.52309,0.8292 0.0783,0 0.16007,-0.0106 0.23997,-0.0106 0.0818,0 0.16034,0.009 0.23945,0.0103 v -0.0566 c -0.11933,-0.0153 -0.17568,-0.0511 -0.24553,-0.15795 l -0.44556,-0.67072 0.013,-0.005 c 0.20003,-0.0794 0.3482,-0.21696 0.3482,-0.44344 0,-0.35719 -0.27596,-0.44027 -0.59743,-0.44133 -0.13494,0 -0.25797,0.01 -0.41196,0.01 -0.15028,0 -0.30189,-0.009 -0.3855,-0.01 v 0.0545 h 0.0352 c 0.0796,0 0.19235,0.0132 0.19235,0.2069 v 1.30836 c 0,0.10372 -0.096,0.15082 -0.19235,0.15082 h -0.0352 v 0.0542 c 0.12277,-5.3e-4 0.23945,-0.0103 0.35957,-0.0103 0.14314,0 0.28734,0.01 0.42889,0.0103 v -0.0534 h -0.0352 c -0.11642,0 -0.22066,-0.0151 -0.22066,-0.21828 v -0.56224 z m 0,-0.0704 v 0 h -0.0114 v -0.7887 l 0.01,-5.3e-4 c 0.0352,-0.003 0.0699,-0.0103 0.14684,-0.0103 0.23363,0 0.38497,0.1524 0.38497,0.38735 -5.3e-4,0.30745 -0.14737,0.41222 -0.40508,0.41249 h -0.12515 z m 0.12489,-0.0225 v 0 c 0.25373,-0.002 0.38047,-0.0905 0.38338,-0.38999 -0.002,-0.22517 -0.14023,-0.3646 -0.36327,-0.36539 -0.0693,0 -0.10187,0.006 -0.13441,0.009 v 0.74586 h 0.1143 z"
         id="path5197" />
      <path
         style="fill:#000000;stroke-width:0.26458332"
         d="m 77.186314,164.2536 0.005,-0.005 v -0.96546 c 0,-0.21141 -0.14579,-0.2421 -0.22225,-0.2421 h -0.0553 v -0.0773 c 0.11933,0 0.2368,0.0101 0.35719,0.0101 0.10504,0 0.20981,-0.0101 0.31512,-0.0101 v 0.0773 h -0.0386 c -0.10742,0 -0.22728,0.0204 -0.22728,0.32703 v 1.1721 c 0,0.09 0.003,0.17992 0.0148,0.25982 h -0.0968 l -1.31657,-1.47849 v 1.06124 c 0,0.22411 0.0437,0.30136 0.24051,0.30136 h 0.0434 v 0.0775 c -0.10954,0 -0.21987,-0.0103 -0.32941,-0.0103 -0.11588,0 -0.23362,0.0103 -0.34792,0.0103 v -0.0775 h 0.0352 c 0.17674,0 0.23045,-0.12091 0.23045,-0.32676 v -1.08505 c 0,-0.1442 -0.11748,-0.23125 -0.23257,-0.23125 h -0.0331 v -0.0773 c 0.0966,0 0.19711,0.0101 0.29395,0.0101 0.0759,0 0.15081,-0.0101 0.22781,-0.0101 z"
         id="path5199" />
      <path
         style="fill:#000000;stroke-width:0.26458332"
         d="m 77.334214,164.81107 -0.1053,-0.004 -1.29672,-1.4568 v 1.03188 c 0.003,0.22384 0.0368,0.2876 0.22992,0.29025 h 0.0537 v 0.0111 0.0884 h -0.0116 c -0.10981,0 -0.21961,-0.0106 -0.32941,-0.0106 -0.11456,0 -0.23257,0.0106 -0.3474,0.0106 h -0.0119 v -0.0109 -0.0886 h 0.0119 0.0352 c 0.16854,-8e-4 0.21749,-0.11033 0.21908,-0.31618 v -1.08453 c -5.3e-4,-0.13705 -0.11219,-0.22039 -0.22119,-0.22039 h -0.045 v -0.0109 -0.0889 h 0.0119 c 0.0971,0 0.19738,0.0106 0.29395,0.0106 0.0749,0 0.14923,-0.0106 0.23495,-0.007 l 1.12316,1.2745 v -0.94747 c -5.3e-4,-0.20453 -0.13652,-0.22966 -0.2114,-0.23098 h -0.0659 v -0.0109 -0.0889 h 0.0111 c 0.11959,0 0.23733,0.0106 0.35719,0.0106 0.10451,0 0.20928,-0.0106 0.31459,-0.0106 h 0.0109 v 0.0116 0.0881 h -0.0109 -0.0384 c -0.1053,0.003 -0.21431,0.0124 -0.21696,0.31617 v 1.17184 c 0,0.0902 0.003,0.17965 0.0156,0.25876 l 10e-4,0.0127 z m -0.0971,-0.0228 v 0 h 0.0836 c -0.0109,-0.077 -0.0132,-0.16298 -0.0132,-0.24844 v -1.17184 c 0,-0.3093 0.12938,-0.33788 0.23892,-0.33841 h 0.027 v -0.0545 c -0.10028,5.3e-4 -0.20188,0.01 -0.30322,0.01 -0.11721,0 -0.23124,-0.009 -0.34739,-0.01 v 0.0545 h 0.045 c 0.0791,5.3e-4 0.23416,0.0355 0.23416,0.25321 l -0.004,0.97367 -0.005,0.006 -0.008,0.008 -1.13797,-1.29514 c -0.0754,0 -0.14923,0.01 -0.22675,0.01 -0.095,0 -0.19076,-0.009 -0.28363,-0.01 v 0.0545 h 0.0228 c 0.12012,5.3e-4 0.24342,0.0918 0.24342,0.24263 v 1.08452 c 0,0.20638 -0.0579,0.33814 -0.2413,0.3392 l -0.0249,-5.3e-4 v 0.0542 c 0.11033,-5.3e-4 0.22463,-0.01 0.33681,-0.01 0.10716,0 0.21352,0.009 0.31909,0.01 v -0.0537 h -0.0317 c -0.20161,-5.3e-4 -0.25215,-0.0894 -0.25268,-0.31327 v -1.08955 z m -0.0508,-0.53472 v 0 l 0.007,-0.007 z m -0.007,-0.005 v 0 -5.3e-4 l -0.002,-0.002 z"
         id="path5201" />
      <path
         style="fill:#000000;stroke-width:0.26458332"
         d="m 77.996994,164.39303 c -0.0262,0.0876 -0.0572,0.15478 -0.0572,0.20082 0,0.0775 0.10769,0.0902 0.19209,0.0902 h 0.028 v 0.0775 c -0.10213,-0.006 -0.20691,-0.0103 -0.30983,-0.0103 -0.0921,0 -0.18336,0.005 -0.2757,0.0103 v -0.0775 h 0.0153 c 0.0998,0 0.18441,-0.0595 0.22225,-0.16774 l 0.40984,-1.18163 c 0.0331,-0.0955 0.0796,-0.22437 0.0947,-0.32015 0.0815,-0.0278 0.18468,-0.0794 0.23283,-0.11033 0.008,-0.003 0.0124,-0.005 0.0201,-0.005 0.008,0 0.013,0 0.0185,0.008 0.007,0.0201 0.0145,0.0437 0.0233,0.064 l 0.47016,1.34726 c 0.0304,0.09 0.0608,0.1852 0.0939,0.26273 0.0312,0.072 0.0852,0.10292 0.1696,0.10292 h 0.0153 v 0.0775 c -0.11509,-0.006 -0.23019,-0.0103 -0.35295,-0.0103 -0.12542,0 -0.25374,0.005 -0.38391,0.0103 v -0.0775 h 0.0286 c 0.0585,0 0.15822,-0.0103 0.15822,-0.0746 0,-0.0333 -0.0228,-0.10266 -0.0516,-0.18548 l -0.0992,-0.29897 h -0.58129 z m 0.37333,-1.14088 v 0 h -0.006 l -0.23759,0.72866 h 0.47837 z"
         id="path5203" />
      <path
         style="fill:#000000;stroke-width:0.26458332"
         d="m 79.359604,164.77245 c -0.1151,-0.005 -0.23019,-0.0106 -0.35216,-0.0106 -0.12542,0 -0.25242,0.006 -0.38365,0.0106 l -0.0119,0.001 v -0.0119 -0.0894 h 0.0116 0.028 c 0.0595,0 0.14738,-0.0132 0.14738,-0.0624 5.2e-4,-0.0294 -0.0225,-0.10055 -0.0505,-0.1823 l -0.0971,-0.29104 h -0.56515 l -0.0794,0.25982 c -0.0259,0.0881 -0.0569,0.1561 -0.0563,0.19791 0.001,0.063 0.0963,0.078 0.1815,0.078 h 0.0392 v 0.0119 0.0894 l -0.0116,-0.001 c -0.1024,-0.005 -0.20691,-0.0106 -0.30877,-0.0106 -0.0916,0 -0.18389,0.006 -0.2757,0.0106 l -0.0116,0.001 v -0.0119 -0.0894 h 0.0111 0.0153 c 0.095,0 0.17462,-0.0545 0.2114,-0.15928 l 0.40958,-1.18216 c 0.0339,-0.0953 0.0802,-0.22384 0.10213,-0.32676 0.0802,-0.0273 0.18335,-0.0791 0.23256,-0.11033 0.007,-0.002 0.0146,-0.006 0.0249,-0.006 0.006,-2.7e-4 0.0198,0.002 0.028,0.0151 0.007,0.0214 0.0154,0.0444 0.023,0.0651 l 0.47122,1.34699 c 0.0302,0.0902 0.0606,0.18574 0.0937,0.26167 0.0302,0.0685 0.077,0.0955 0.15927,0.0955 h 0.0267 v 0.0119 0.0894 z m -0.7247,-0.0233 v 0 c 0.12647,-0.005 0.2503,-0.009 0.37254,-0.009 0.1188,0 0.23018,0.005 0.34131,0.009 v -0.0532 h -0.004 c -0.0873,2.7e-4 -0.14791,-0.0341 -0.17939,-0.1106 -0.0333,-0.0781 -0.0646,-0.17356 -0.095,-0.26352 l -0.47016,-1.34673 c -0.008,-0.0206 -0.0156,-0.0442 -0.0222,-0.0619 -0.002,-0.003 -0.002,-0.003 -0.004,-0.003 h -0.005 c -0.005,0 -0.008,0.001 -0.0153,0.003 -0.0495,0.0323 -0.15187,0.0831 -0.22807,0.10292 -0.0156,0.0976 -0.0614,0.22622 -0.095,0.32173 l -0.40904,1.18216 c -0.0394,0.11166 -0.12885,0.17569 -0.23283,0.17569 h -0.004 v 0.0532 c 0.0876,-0.005 0.17621,-0.009 0.26511,-0.009 0.0987,0 0.19976,0.005 0.29766,0.009 v -0.0534 h -0.0167 c -0.0831,-0.001 -0.19976,-0.0106 -0.20293,-0.10186 0,-0.0513 0.0317,-0.11721 0.0566,-0.204 l 0.0114,0.003 -0.0114,-0.004 0.0836,-0.27543 h 0.59742 l 0.1024,0.30639 c 0.0288,0.0825 0.0521,0.15081 0.0521,0.18891 -0.003,0.0791 -0.11139,0.0844 -0.1696,0.0865 h -0.0161 z m -0.52334,-0.75724 v 0 l 0.24474,-0.75141 h 0.008 0.006 v 0.0114 l -0.003,5.3e-4 0.003,-5.3e-4 v -0.0111 h 0.007 l 0.24368,0.75142 h -0.50906 z m 0.0299,-0.0225 v 0 h 0.4482 l -0.22278,-0.69003 z m 0.21748,-0.71437 v 0 l 0.006,-0.002 z"
         id="path5205" />
      <path
         style="fill:#000000;stroke-width:0.26458332"
         d="m 79.472574,163.09208 c -0.19155,0 -0.19923,0.0466 -0.23733,0.23442 h -0.077 c 0.01,-0.0717 0.0228,-0.14367 0.031,-0.21881 0.0103,-0.072 0.0151,-0.14394 0.0151,-0.21881 h 0.0614 c 0.0204,0.0775 0.0847,0.0749 0.15346,0.0749 h 1.32027 c 0.0688,0 0.13256,-0.002 0.13785,-0.0799 l 0.0608,0.0101 c -0.01,0.0699 -0.0196,0.13917 -0.0275,0.20876 -0.006,0.0696 -0.006,0.13891 -0.006,0.20823 l -0.0762,0.0288 c -0.005,-0.095 -0.0175,-0.24792 -0.18918,-0.24792 h -0.41963 v 1.37054 c 0,0.19844 0.09,0.22146 0.21193,0.22146 h 0.0489 v 0.0775 c -0.0995,0 -0.27834,-0.0103 -0.41672,-0.0103 -0.15293,0 -0.33284,0.0103 -0.43259,0.0103 v -0.0775 h 0.0484 c 0.14076,0 0.21325,-0.013 0.21325,-0.2159 v -1.37583 z"
         id="path5207" />
      <path
         style="fill:#000000;stroke-width:0.26458332"
         d="m 80.480644,164.77245 c -0.10054,0 -0.2794,-0.0103 -0.41672,-0.0103 -0.15293,0 -0.33232,0.0103 -0.4326,0.0103 h -0.0114 v -0.0109 -0.0886 h 0.0114 0.0484 c 0.14076,-0.004 0.19765,-0.006 0.20135,-0.20479 l -5.3e-4,-1.36472 h -0.40799 v -0.0111 -0.0114 h 0.43101 v 1.38721 c 0,0.20664 -0.0831,0.22675 -0.22384,0.22728 h -0.0378 v 0.055 c 0.1016,-0.001 0.27358,-0.0103 0.42201,-0.0103 0.13335,0 0.30453,0.009 0.4056,0.0103 v -0.055 h -0.0378 c -0.12303,-5.3e-4 -0.22304,-0.0302 -0.22304,-0.23283 v -1.38192 h 0.43074 c 0.17145,7.9e-4 0.19394,0.1479 0.19896,0.24342 l 0.0558,-0.0204 c 0,-0.0675 0,-0.13467 0.005,-0.2024 0.007,-0.0664 0.0167,-0.13229 0.0265,-0.19765 l -0.0386,-0.007 c -0.0116,0.0751 -0.0841,0.0791 -0.1479,0.0783 h -1.32027 -0.013 c -0.0606,5.3e-4 -0.12594,-0.003 -0.14896,-0.0754 h -0.0418 c -5.3e-4,0.0717 -0.006,0.14076 -0.0156,0.20929 -0.006,0.0712 -0.0193,0.13917 -0.0288,0.20664 h 0.055 c 0.0336,-0.17939 0.0558,-0.2376 0.24686,-0.23495 v 0.0114 0.0111 c -0.18944,0.004 -0.18521,0.0357 -0.22701,0.22595 l -0.002,0.009 h -0.008 -0.0905 l 0.002,-0.0127 c 0.0103,-0.0728 0.0236,-0.14472 0.0309,-0.21907 0.01,-0.0717 0.0151,-0.14314 0.0151,-0.21749 v -0.0111 h 0.0109 0.0698 l 0.002,0.008 c 0.018,0.0651 0.0646,0.0653 0.13017,0.0664 l 0.013,5.3e-4 h 1.32027 c 0.0709,-0.002 0.12224,-0.002 0.12674,-0.0699 l 5.2e-4,-0.0122 0.0117,0.003 0.0728,0.0111 -0.002,0.0111 c -0.0106,0.0693 -0.0204,0.1389 -0.028,0.20769 -0.005,0.0691 -0.005,0.13865 -0.005,0.2077 v 0.008 l -0.007,0.003 -0.0907,0.0328 -0.001,-0.0151 c -0.006,-0.0966 -0.0167,-0.23707 -0.1778,-0.23707 h -0.40825 v 1.35943 c 0.002,0.19394 0.0786,0.2077 0.20055,0.21034 h 0.0601 v 0.0111 0.0884 h -0.0111 z"
         id="path5209" />
      <path
         style="fill:#000000;stroke-width:0.26458332"
         d="m 81.032824,164.68407 h 0.0362 c 0.0926,0 0.18891,-0.0127 0.18891,-0.1471 v -1.34911 c 0,-0.13441 -0.0963,-0.14711 -0.18891,-0.14711 h -0.0362 v -0.0773 c 0.10002,0 0.25321,0.0101 0.37836,0.0101 0.12806,0 0.28151,-0.0101 0.40216,-0.0101 v 0.0773 h -0.0357 c -0.0921,0 -0.19023,0.0127 -0.19023,0.14711 v 1.34911 c 0,0.1344 0.0982,0.1471 0.19023,0.1471 h 0.0357 v 0.0775 c -0.12303,0 -0.27702,-0.0103 -0.40428,-0.0103 -0.12541,0 -0.27596,0.0103 -0.37597,0.0103 v -0.0775 z"
         id="path5211" />
      <path
         style="fill:#000000;stroke-width:0.26458332"
         d="m 81.813084,164.77245 c -0.12356,0 -0.27702,-0.0106 -0.40428,-0.0106 -0.12515,0 -0.27596,0.0106 -0.37598,0.0106 h -0.0111 v -0.0109 -0.0775 -0.0111 h 0.0111 0.0362 c 0.0926,-0.002 0.17701,-0.01 0.17727,-0.13599 v -1.34911 c -2.6e-4,-0.12568 -0.0847,-0.13441 -0.17727,-0.13626 h -0.0474 v -0.0109 -0.0884 h 0.0111 c 0.10002,0 0.25347,0.0101 0.37836,0.0101 0.12753,0 0.28125,-0.0101 0.40216,-0.0101 h 0.0109 v 0.0111 0.0881 h -0.0109 -0.0357 c -0.0937,0.002 -0.1778,0.0106 -0.17885,0.13626 v 1.34911 c 0.001,0.12647 0.0852,0.1344 0.17885,0.13599 h 0.0466 v 0.0111 0.0884 z m -0.0111,-0.0228 v 0 -0.0542 h -0.0246 c -0.0921,0 -0.20055,-0.0164 -0.20055,-0.15848 v -1.34911 c 0,-0.14235 0.10848,-0.15849 0.20055,-0.15849 h 0.0246 v -0.0545 c -0.11827,5.3e-4 -0.26644,0.01 -0.39106,0.01 -0.12118,0 -0.26776,-0.009 -0.36697,-0.01 v 0.0545 h 0.0249 c 0.091,0 0.19949,0.0161 0.20002,0.15849 v 1.34911 c -5.3e-4,0.14208 -0.10901,0.15848 -0.20002,0.15848 h -0.0249 v 0.0542 c 0.0987,-7.9e-4 0.24341,-0.01 0.36459,-0.01 0.12462,0 0.27252,0.009 0.39344,0.01 z"
         id="path5213" />
      <path
         style="fill:#000000;stroke-width:0.26458332"
         d="m 82.833054,162.92486 c 0.54557,0 0.98001,0.34052 0.98001,0.889 0,0.59214 -0.42174,0.9861 -0.96625,0.9861 -0.54266,0 -0.95647,-0.37068 -0.95647,-0.92472 -2.7e-4,-0.53525 0.41116,-0.95038 0.94271,-0.95038 z m 0.0386,1.7616 v 0 c 0.49662,0 0.58287,-0.4408 0.58287,-0.81624 0,-0.37651 -0.20161,-0.83238 -0.62653,-0.83238 -0.44741,0 -0.58023,0.40216 -0.58023,0.74665 0,0.46117 0.20955,0.90197 0.62389,0.90197 z"
         id="path5215" />
      <path
         style="fill:#000000;stroke-width:0.26458332"
         d="m 81.878174,163.87524 c 0.001,-0.54186 0.41751,-0.9607 0.95461,-0.96176 v 0.0114 0.0109 c -0.52519,0 -0.93239,0.40931 -0.93318,0.93953 0.001,0.54769 0.40957,0.91282 0.94694,0.91308 0.53896,-2.6e-4 0.95488,-0.38841 0.95594,-0.97525 -5.3e-4,-0.54134 -0.42889,-0.87657 -0.9697,-0.87736 v -0.0109 -0.0114 c 0.54954,5.3e-4 0.98981,0.34423 0.9914,0.89959 -5.3e-4,0.59848 -0.42836,0.99668 -0.97764,0.99774 -0.54689,-0.001 -0.96705,-0.37544 -0.96837,-0.93557 z m 0.35877,-0.0905 v 0 c 5.3e-4,-0.34634 0.13494,-0.7583 0.59135,-0.7583 0.43418,0.001 0.63685,0.46567 0.63791,0.84376 -0.001,0.37544 -0.0886,0.82708 -0.59452,0.82708 v -0.0108 -0.0109 c 0.48657,-0.001 0.57097,-0.42995 0.57229,-0.80539 0,-0.37333 -0.20002,-0.82048 -0.61568,-0.82101 -0.43895,5.3e-4 -0.56859,0.39238 -0.56939,0.73528 5.3e-4,0.45879 0.20796,0.88979 0.61278,0.89085 v 0.0109 0.0109 c -0.42413,-2.7e-4 -0.63421,-0.44847 -0.63474,-0.91228 z"
         id="path5217" />
      <path
         style="fill:#000000;stroke-width:0.26458332"
         d="m 85.537094,164.2536 0.006,-0.005 v -0.96546 c 0,-0.21141 -0.14658,-0.2421 -0.22305,-0.2421 h -0.0556 v -0.0773 c 0.12012,0 0.2376,0.0101 0.35745,0.0101 0.10504,0 0.20982,-0.0101 0.31512,-0.0101 v 0.0773 h -0.0386 c -0.10689,0 -0.22728,0.0204 -0.22728,0.32703 v 1.1721 c 0,0.09 0.002,0.17992 0.0153,0.25982 h -0.0968 l -1.31762,-1.47849 v 1.06124 c 0,0.22411 0.0429,0.30136 0.24024,0.30136 h 0.0434 v 0.0775 c -0.11007,0 -0.2196,-0.0103 -0.32967,-0.0103 -0.11536,0 -0.2331,0.0103 -0.34819,0.0103 v -0.0775 h 0.036 c 0.17701,0 0.23019,-0.12091 0.23019,-0.32676 v -1.08505 c 0,-0.1442 -0.11695,-0.23125 -0.23283,-0.23125 h -0.0333 v -0.0773 c 0.0971,0 0.19711,0.0101 0.29448,0.0101 0.0765,0 0.15028,-0.0101 0.22728,-0.0101 z"
         id="path5219" />
      <path
         style="fill:#000000;stroke-width:0.26458332"
         d="m 85.685794,164.81107 -0.10584,-0.004 -1.29804,-1.4568 v 1.03188 c 0.003,0.22384 0.0368,0.28734 0.22886,0.28945 h 0.0553 v 0.0119 0.0884 h -0.0114 c -0.11059,0 -0.2204,-0.0103 -0.32967,-0.0103 -0.11483,0 -0.2323,0.0103 -0.34819,0.0103 h -0.0109 v -0.0109 -0.0892 h 0.0109 0.036 c 0.16881,-2.7e-4 0.21723,-0.10954 0.21934,-0.31486 v -1.08505 c 0,-0.13706 -0.11165,-0.2204 -0.22198,-0.2204 h -0.0442 v -0.0109 -0.0884 h 0.0109 c 0.0982,0 0.19764,0.0101 0.29395,0.0101 0.0759,0 0.14976,-0.0101 0.23627,-0.006 l 1.12422,1.2737 v -0.9472 c -8e-4,-0.20453 -0.13732,-0.2294 -0.21167,-0.23125 h -0.0675 v -0.0109 -0.0884 h 0.0114 c 0.12039,0 0.23813,0.0101 0.35772,0.0101 0.10477,0 0.20928,-0.0101 0.31512,-0.0101 h 0.0108 v 0.0111 0.0881 h -0.0108 -0.0386 c -0.10531,0.003 -0.21458,0.0127 -0.21617,0.31618 v 1.17184 c 0,0.0902 0.002,0.17991 0.0143,0.25876 l 0.002,0.0127 h -0.0124 z m -0.0971,-0.0228 v 0 h 0.0836 c -0.0114,-0.077 -0.013,-0.16298 -0.013,-0.24844 v -1.17184 c 0,-0.31009 0.12858,-0.33788 0.23812,-0.33841 h 0.0275 v -0.0545 c -0.10107,5.3e-4 -0.20214,0.01 -0.30401,0.01 -0.11641,0 -0.23098,-0.009 -0.34687,-0.01 v 0.0545 h 0.045 c 0.0791,5.3e-4 0.2331,0.036 0.2331,0.25348 l -0.002,0.9734 -0.005,0.006 -0.008,0.008 -1.1385,-1.29514 c -0.0754,0 -0.14976,0.01 -0.22728,0.01 -0.0942,0 -0.19023,-0.009 -0.28363,-0.01 v 0.0545 h 0.0225 c 0.12012,5.3e-4 0.24394,0.0918 0.24394,0.24263 v 1.08505 c 0,0.20585 -0.0572,0.33761 -0.24077,0.33867 l -0.0257,-5.3e-4 v 0.0542 c 0.11112,-5.3e-4 0.22516,-0.01 0.33734,-0.01 0.10636,0 0.21246,0.009 0.31882,0.01 v -0.0537 h -0.0331 c -0.20082,-5.3e-4 -0.25082,-0.0894 -0.25082,-0.31327 v -1.09034 z m -0.0516,-0.53472 v 0 l 0.008,-0.007 z m -0.006,-0.005 v 0 -5.3e-4 l -0.002,-0.002 z"
         id="path5221" />
      <path
         style="fill:#000000;stroke-width:0.26458332"
         d="m 86.347244,164.39303 c -0.0249,0.0876 -0.0558,0.15478 -0.0558,0.20082 0,0.0775 0.10742,0.0902 0.19129,0.0902 h 0.0283 v 0.0775 c -0.10239,-0.006 -0.2069,-0.0103 -0.30903,-0.0103 -0.0929,0 -0.18442,0.005 -0.27596,0.0103 v -0.0775 h 0.0146 c 0.10001,0 0.18494,-0.0595 0.22278,-0.16774 l 0.40957,-1.18163 c 0.0331,-0.0955 0.0794,-0.22437 0.0942,-0.32015 0.0818,-0.0278 0.18415,-0.0794 0.23363,-0.11033 0.007,-0.003 0.0124,-0.005 0.0201,-0.005 0.007,0 0.0124,0 0.0169,0.008 0.008,0.0201 0.0161,0.0437 0.0236,0.064 l 0.4707,1.34726 c 0.0307,0.09 0.0606,0.1852 0.0947,0.26273 0.0304,0.072 0.0841,0.10292 0.1688,0.10292 h 0.0154 v 0.0775 c -0.11536,-0.006 -0.23046,-0.0103 -0.35296,-0.0103 -0.12541,0 -0.2532,0.005 -0.38338,0.0103 v -0.0775 h 0.0281 c 0.0582,0 0.15875,-0.0103 0.15875,-0.0746 0,-0.0333 -0.023,-0.10266 -0.0519,-0.18548 l -0.0992,-0.29897 h -0.58076 z m 0.37412,-1.14088 v 0 h -0.005 l -0.23812,0.72866 h 0.47863 z"
         id="path5223" />
      <path
         style="fill:#000000;stroke-width:0.26458332"
         d="m 87.709854,164.77245 c -0.11483,-0.005 -0.22993,-0.0103 -0.3519,-0.0103 -0.12488,0 -0.2532,0.006 -0.38338,0.0103 l -0.0114,0.001 v -0.0119 -0.0886 h 0.0114 0.0275 c 0.0598,0 0.1479,-0.014 0.1479,-0.0635 5.3e-4,-0.0294 -0.0225,-0.0995 -0.0513,-0.18203 l -0.0971,-0.29104 h -0.56436 l -0.0796,0.25982 c -0.0249,0.0881 -0.0558,0.1561 -0.0553,0.19764 0,0.0632 0.0961,0.0791 0.18045,0.0791 h 0.0392 v 0.0111 0.0894 l -0.0114,-0.001 c -0.10239,-0.005 -0.2069,-0.0103 -0.3085,-0.0103 -0.0921,0 -0.18389,0.006 -0.27596,0.0103 l -0.0111,0.001 v -0.0119 -0.0886 h 0.0111 0.0146 c 0.095,-7.9e-4 0.17515,-0.0558 0.21246,-0.15981 l 0.40931,-1.18215 c 0.0325,-0.0953 0.0791,-0.22384 0.10186,-0.32597 0.0802,-0.0281 0.18283,-0.0799 0.23257,-0.11113 0.007,-0.002 0.014,-0.006 0.0243,-0.006 0.007,-8e-4 0.0196,0.001 0.0278,0.0151 0.007,0.0201 0.0153,0.0434 0.0235,0.0643 l 0.47043,1.34726 c 0.0307,0.0902 0.0609,0.18574 0.0939,0.26194 0.0299,0.0683 0.077,0.0952 0.15849,0.096 h 0.0267 v 0.0111 0.0894 z m -0.72443,-0.0228 v 0 c 0.12647,-0.005 0.25082,-0.01 0.37253,-0.01 0.1188,0 0.23045,0.005 0.34211,0.009 l -8e-4,-0.0532 h -0.004 c -0.0863,0 -0.14711,-0.0341 -0.17859,-0.1106 -0.0341,-0.0781 -0.064,-0.17356 -0.095,-0.26352 l -0.47069,-1.34673 c -0.008,-0.0206 -0.0156,-0.0442 -0.0214,-0.0614 -0.002,-0.003 -0.002,-0.003 -0.004,-0.003 h -0.005 c -0.006,0 -0.008,0.002 -0.0151,0.003 -0.0495,0.0315 -0.15187,0.0831 -0.2278,0.10292 -0.0159,0.0976 -0.0619,0.22595 -0.095,0.32173 l -0.40984,1.18216 c -0.0386,0.11166 -0.12806,0.17569 -0.23257,0.17569 h -0.004 v 0.0532 c 0.0884,-0.005 0.17621,-0.009 0.26511,-0.009 0.0992,0 0.20003,0.005 0.29872,0.009 v -0.0534 h -0.0175 c -0.0831,-0.001 -0.1995,-0.0106 -0.20268,-0.10213 5.3e-4,-0.0511 0.0323,-0.11642 0.0569,-0.20399 l 0.0103,0.003 -0.0103,-0.004 0.0841,-0.27543 h 0.59637 l 0.10292,0.30612 c 0.0281,0.0828 0.0511,0.15108 0.0511,0.18918 -0.004,0.0791 -0.1106,0.0844 -0.16934,0.0865 h -0.0167 v 0.054 z m -0.52282,-0.75777 v 0 l 0.24554,-0.75141 h 0.008 0.006 v 0.0114 l -0.003,5.3e-4 0.003,-5.3e-4 v -0.0111 h 0.008 l 0.24183,0.75142 h -0.50827 z m 0.0307,-0.0225 v 0 h 0.44715 l -0.22225,-0.6895 z m 0.21723,-0.71437 v 0 l 0.005,-0.002 z"
         id="path5225" />
      <path
         style="fill:#000000;stroke-width:0.26458332"
         d="m 88.355964,164.50892 c 0,0.10319 0.0712,0.13361 0.15293,0.1442 0.10477,0.008 0.21987,0.008 0.33814,-0.005 0.10662,-0.0132 0.19896,-0.0746 0.245,-0.13891 0.0408,-0.0572 0.0635,-0.12885 0.0791,-0.18574 h 0.0743 c -0.028,0.14685 -0.0638,0.29157 -0.0947,0.43815 -0.2249,0 -0.45032,-0.0103 -0.67522,-0.0103 -0.22569,0 -0.44979,0.0103 -0.67521,0.0103 v -0.0778 h 0.0352 c 0.0926,0 0.19289,-0.0124 0.19289,-0.17198 v -1.32371 c 0,-0.13441 -0.10028,-0.14711 -0.19289,-0.14711 h -0.0352 v -0.0773 c 0.1352,0 0.26881,0.0101 0.40348,0.0101 0.13124,0 0.25877,-0.0101 0.38921,-0.0101 v 0.0773 h -0.064 c -0.0968,0 -0.17304,0.003 -0.17304,0.1389 z"
         id="path5227" />
      <path
         style="fill:#000000;stroke-width:0.26458332"
         d="m 89.150774,164.77245 c -0.22569,0 -0.45059,-0.0103 -0.67522,-0.0103 -0.22516,0 -0.45032,0.0103 -0.67574,0.0103 h -0.0109 v -0.0109 -0.0886 h 0.0109 0.0357 c 0.0929,-0.003 0.18045,-0.009 0.18151,-0.16113 v -1.32424 c -0.001,-0.12515 -0.0881,-0.13388 -0.18151,-0.13573 h -0.0466 v -0.0109 -0.0884 h 0.0109 c 0.13626,0 0.26934,0.0101 0.40454,0.0101 0.12965,0 0.25771,-0.0101 0.38868,-0.0101 h 0.0108 v 0.0111 0.0881 h -0.0108 -0.064 c -0.099,0.003 -0.1606,-0.002 -0.16272,0.12806 v 1.329 c 10e-4,0.0958 0.063,0.12171 0.14314,0.13282 0.045,0.003 0.0926,0.006 0.14155,0.006 0.063,0 0.12753,-0.003 0.19368,-0.0103 0.10451,-0.0122 0.19393,-0.0725 0.23812,-0.13415 0.0392,-0.055 0.0619,-0.12594 0.0773,-0.18203 l 0.002,-0.008 h 0.009 0.0881 l -0.003,0.0138 c -0.0288,0.14738 -0.064,0.29131 -0.095,0.43762 l -0.002,0.009 z m -0.009,-0.0228 v 0 c 0.0296,-0.13943 0.0632,-0.27596 0.0907,-0.41539 h -0.0524 c -0.0161,0.0564 -0.0386,0.12541 -0.0791,0.18203 -0.0479,0.0667 -0.14208,0.12938 -0.2532,0.14314 -0.0669,0.007 -0.13335,0.0106 -0.19633,0.0106 -0.0492,0 -0.0971,-0.003 -0.14366,-0.006 -0.0831,-0.009 -0.16378,-0.045 -0.16352,-0.15505 v -1.32953 c 0,-0.14288 0.09,-0.15029 0.18521,-0.15029 h 0.0532 v -0.0545 c -0.1262,5.3e-4 -0.25056,0.01 -0.37782,0.01 -0.13282,0 -0.26247,-0.009 -0.39344,-0.01 v 0.0545 h 0.0246 c 0.0913,0 0.20346,0.0161 0.20346,0.15796 v 1.32424 c 0,0.16642 -0.11165,0.18362 -0.20346,0.18362 h -0.0246 v 0.0542 c 0.22093,0 0.44265,-0.01 0.66464,-0.01 0.22225,0 0.4445,0.01 0.66569,0.01 z"
         id="path5229" />
      <path
         style="fill:#000000;stroke-width:0.26458332"
         d="m 89.214274,162.89046 c 0.15399,0 0.26934,0.11907 0.26934,0.272 0,0.15213 -0.11535,0.27014 -0.26934,0.27014 -0.15399,0 -0.26935,-0.11801 -0.26935,-0.27014 0,-0.15293 0.11536,-0.272 0.26935,-0.272 z m 0,0.49186 v 0 c 0.12038,0 0.21299,-0.10345 0.21299,-0.2196 0,-0.11695 -0.091,-0.22146 -0.21299,-0.22146 -0.12065,0 -0.21405,0.10451 -0.21405,0.22146 0,0.11615 0.0934,0.2196 0.21405,0.2196 z m -0.13415,-0.0767 v 0 -0.0138 c 0.0333,-0.005 0.0389,-0.003 0.0389,-0.0243 v -0.20056 c 0,-0.028 -0.003,-0.0378 -0.0378,-0.0362 v -0.014 h 0.13759 c 0.0481,0 0.0913,0.0225 0.0913,0.0717 0,0.0405 -0.0265,0.0704 -0.0632,0.082 l 0.0439,0.0622 c 0.0206,0.0278 0.0439,0.0545 0.0595,0.0638 v 0.009 h -0.0521 c -0.0254,0 -0.0476,-0.0534 -0.0974,-0.12542 h -0.0294 v 0.0905 c 0,0.0177 0.006,0.0167 0.0394,0.0212 v 0.0138 h -0.13071 z m 0.091,-0.14288 v 0 h 0.03177 c 0.0347,0 0.0511,-0.027 0.0511,-0.0693 0,-0.0434 -0.0254,-0.0587 -0.0527,-0.0587 h -0.0302 z"
         id="path5231" />
      <path
         style="fill:#000000;stroke-width:0.26458332"
         d="m 67.701264,159.15322 c 0,-0.42597 -0.22066,-0.39766 -0.43206,-0.40243 v -0.12303 c 0.18309,0.009 0.37094,0.009 0.55456,0.009 0.19738,0 0.46567,-0.009 0.8136,-0.009 1.21735,0 1.87986,0.81862 1.87986,1.65682 0,0.46858 -0.27225,1.64703 -1.93648,1.64703 -0.23972,0 -0.46091,-0.009 -0.68183,-0.009 -0.21167,0 -0.41831,0.005 -0.62971,0.009 v -0.12303 c 0.28151,-0.0286 0.41804,-0.0381 0.43206,-0.35983 z m 0.46091,2.21986 v 0 c 0,0.36486 0.25876,0.40693 0.48895,0.40693 1.016,0 1.34937,-0.77153 1.34937,-1.47664 0,-0.88503 -0.56409,-1.524 -1.47135,-1.524 -0.19288,0 -0.28178,0.014 -0.36697,0.0188 z"
         id="path5235" />
      <path
         style="fill:#000000;stroke-width:0.26458332"
         d="m 70.682594,161.80858 h 0.0889 c 0.1315,0 0.22595,0 0.22595,-0.15663 v -1.28217 c 0,-0.20823 -0.0709,-0.23707 -0.24474,-0.331 v -0.0759 c 0.22093,-0.0667 0.48445,-0.1561 0.50297,-0.17039 0.0331,-0.0193 0.0609,-0.0243 0.0847,-0.0243 0.0233,0 0.0331,0.0286 0.0331,0.0669 v 1.81689 c 0,0.15663 0.10346,0.15663 0.23495,0.15663 h 0.0799 v 0.1233 c -0.16007,0 -0.32465,-0.009 -0.49345,-0.009 -0.16933,0 -0.3384,0.005 -0.51223,0.009 z m 0.50271,-2.76886 v 0 c -0.12251,0 -0.23019,-0.11351 -0.23019,-0.2368 0,-0.11854 0.11271,-0.22781 0.23019,-0.22781 0.12197,0 0.23045,0.10001 0.23045,0.22781 0,0.12832 -0.10372,0.2368 -0.23045,0.2368 z"
         id="path5237" />
      <path
         style="fill:#000000;stroke-width:0.26458332"
         d="m 72.135154,160.39782 c 0,-0.17489 -0.0521,-0.22198 -0.27279,-0.31194 v -0.09 c 0.20215,-0.0664 0.3945,-0.12753 0.62019,-0.22754 0.014,0 0.0283,0.0101 0.0283,0.0476 v 0.30771 c 0.26829,-0.19394 0.49821,-0.35534 0.81386,-0.35534 0.39872,0 0.54001,0.29369 0.54001,0.66305 v 1.22078 c 0,0.15664 0.10345,0.15664 0.23522,0.15664 h 0.0847 v 0.12329 c -0.16483,0 -0.32914,-0.009 -0.49847,-0.009 -0.16934,0 -0.33867,0.004 -0.50774,0.009 v -0.12329 h 0.0841 c 0.13229,0 0.22542,0 0.22542,-0.15664 v -1.22528 c 0,-0.27014 -0.16324,-0.40243 -0.43153,-0.40243 -0.15028,0 -0.39026,0.12329 -0.54584,0.22727 v 1.40044 c 0,0.15664 0.10372,0.15664 0.23575,0.15664 h 0.0841 v 0.12329 c -0.1643,0 -0.32914,-0.01 -0.49873,-0.01 -0.16907,0 -0.33841,0.005 -0.50748,0.01 v -0.12329 h 0.0847 c 0.13176,0 0.22596,0 0.22596,-0.15664 v -1.25439 z"
         id="path5239" />
      <path
         style="fill:#000000;stroke-width:0.26458332"
         d="m 74.542334,160.62537 c -0.0101,0.0429 -0.0101,0.1135 0,0.27463 0.0278,0.44953 0.31485,0.81836 0.6903,0.81836 0.25823,0 0.4609,-0.14182 0.63447,-0.31671 l 0.0656,0.0664 c -0.21642,0.28866 -0.48445,0.53446 -0.86862,0.53446 -0.74798,0 -0.89853,-0.72892 -0.89853,-1.03161 0,-0.92789 0.62071,-1.20253 0.94959,-1.20253 0.38047,0 0.78952,0.2413 0.79402,0.74348 0,0.0286 0,0.0566 -0.004,0.0852 l -0.0426,0.0283 z m 0.83185,-0.15135 v 0 c 0.11642,0 0.1307,-0.0619 0.1307,-0.11826 0,-0.2413 -0.14525,-0.43551 -0.40825,-0.43551 -0.28681,0 -0.48445,0.21273 -0.54054,0.55377 z"
         id="path5241" />
      <path
         style="fill:#000000;stroke-width:0.26458332"
         d="m 76.017384,161.80858 h 0.127 c 0.13097,0 0.22516,0 0.22516,-0.15663 v -1.32953 c 0,-0.14685 -0.17357,-0.17516 -0.24447,-0.21326 v -0.0706 c 0.34316,-0.14711 0.53154,-0.2704 0.57414,-0.2704 0.0278,0 0.0418,0.0143 0.0418,0.0619 v 0.42571 h 0.01 c 0.11721,-0.18441 0.31406,-0.48789 0.6006,-0.48789 0.11721,0 0.26776,0.0807 0.26776,0.25109 0,0.12779 -0.0886,0.24183 -0.22013,0.24183 -0.14658,0 -0.14658,-0.11404 -0.31063,-0.11404 -0.0802,0 -0.34237,0.10875 -0.34237,0.39291 v 1.11178 c 0,0.15663 0.0937,0.15663 0.22463,0.15663 h 0.263 v 0.1233 c -0.2585,-0.005 -0.45429,-0.009 -0.65696,-0.009 -0.19262,0 -0.39,0.005 -0.55906,0.009 v -0.12277 z"
         id="path5243" />
      <path
         style="fill:#000000;stroke-width:0.26458332"
         d="m 77.826074,161.2736 c 0.0616,0.31273 0.24924,0.57785 0.59293,0.57785 0.27702,0 0.38047,-0.17066 0.38047,-0.33629 0,-0.55854 -1.02499,-0.37862 -1.02499,-1.14062 0,-0.26511 0.21167,-0.60616 0.72946,-0.60616 0.15028,0 0.35216,0.0429 0.53525,0.13785 l 0.0331,0.48233 h -0.10795 c -0.0471,-0.29765 -0.21114,-0.46831 -0.51276,-0.46831 -0.18865,0 -0.36698,0.10875 -0.36698,0.31247 0,0.55404 1.09088,0.38312 1.09088,1.12607 0,0.31247 -0.24898,0.64373 -0.80936,0.64373 -0.18812,0 -0.40878,-0.0659 -0.57309,-0.16034 l -0.0519,-0.54451 z"
         id="path5245" />
      <path
         style="fill:#000000;stroke-width:0.26458332"
         d="m 83.420954,159.48448 h -0.11721 c -0.0894,-0.55324 -0.47969,-0.77628 -1.00594,-0.77628 -0.54108,0 -1.32663,0.36433 -1.32663,1.50045 0,0.95673 0.67787,1.64253 1.4015,1.64253 0.46514,0 0.85117,-0.322 0.94509,-0.81862 l 0.10743,0.028 -0.10743,0.69056 c -0.19737,0.12356 -0.72866,0.25109 -1.03928,0.25109 -1.09987,0 -1.79546,-0.71464 -1.79546,-1.77959 0,-0.97049 0.86016,-1.66635 1.78144,-1.66635 0.38047,0 0.74771,0.12356 1.1094,0.25109 z"
         id="path5247" />
      <path
         style="fill:#000000;stroke-width:0.26458332"
         d="m 83.590814,161.80858 h 0.0886 c 0.13203,0 0.22622,0 0.22622,-0.15663 v -2.63578 c 0,-0.30797 -0.0707,-0.3175 -0.24924,-0.36936 v -0.0754 c 0.18812,-0.0614 0.38497,-0.14685 0.48445,-0.204 0.0511,-0.028 0.0889,-0.0519 0.10266,-0.0519 0.0288,0 0.0384,0.0283 0.0384,0.0664 v 3.27025 c 0,0.15664 0.10345,0.15664 0.23521,0.15664 h 0.0791 v 0.12329 c -0.15875,0 -0.32358,-0.009 -0.49265,-0.009 -0.16907,0 -0.33841,0.004 -0.5125,0.009 v -0.12356 z"
         id="path5249" />
      <path
         style="fill:#000000;stroke-width:0.26458332"
         d="m 86.608924,161.67126 c 0,0.0855 0.0516,0.0902 0.13149,0.0902 0.0564,0 0.12674,-0.005 0.18812,-0.005 v 0.0995 c -0.20267,0.0185 -0.58817,0.11827 -0.67759,0.14631 l -0.0233,-0.0143 v -0.38285 c -0.28151,0.23178 -0.49847,0.39714 -0.83238,0.39714 -0.25347,0 -0.51726,-0.16536 -0.51726,-0.56277 v -1.21179 c 0,-0.12329 -0.0185,-0.24156 -0.28125,-0.26511 v -0.09 c 0.16933,-0.005 0.54504,-0.0333 0.60563,-0.0333 0.0526,0 0.0526,0.0333 0.0526,0.13732 v 1.22079 c 0,0.14235 0,0.54954 0.40826,0.54954 0.16007,0 0.37147,-0.1233 0.56859,-0.2884 v -1.2737 c 0,-0.0942 -0.22569,-0.14632 -0.39423,-0.19394 v -0.0849 c 0.42254,-0.0283 0.68606,-0.0664 0.73316,-0.0664 0.0381,0 0.0381,0.0328 0.0381,0.0855 z"
         id="path5251" />
      <path
         style="fill:#000000;stroke-width:0.26458332"
         d="m 87.544484,160.10943 c 0.18786,-0.16087 0.44186,-0.34105 0.70035,-0.34105 0.54558,0 0.87419,0.4789 0.87419,0.99404 0,0.61992 -0.45138,1.2401 -1.12422,1.2401 -0.34739,0 -0.53049,-0.1135 -0.65299,-0.16536 l -0.14076,0.10848 -0.0984,-0.0516 c 0.0418,-0.2794 0.0656,-0.55403 0.0656,-0.84243 v -2.03544 c 0,-0.30797 -0.0709,-0.3175 -0.24924,-0.36936 v -0.0754 c 0.18838,-0.0614 0.3855,-0.14685 0.48392,-0.204 0.0519,-0.0283 0.0894,-0.0519 0.10451,-0.0519 0.0275,0 0.037,0.0283 0.037,0.0664 z m 0,1.28746 v 0 c 0,0.17992 0.16907,0.48287 0.48366,0.48287 0.50324,0 0.71464,-0.49742 0.71464,-0.91837 0,-0.51118 -0.38497,-0.93716 -0.75194,-0.93716 -0.1741,0 -0.31989,0.11404 -0.44662,0.22305 v 1.14961 z"
         id="path5253" />
      <path
         style="fill:#000000;stroke-width:0.26458332"
         d="m 67.263644,164.68407 h 0.0362 c 0.0921,0 0.18918,-0.0127 0.18918,-0.1471 v -1.34911 c 0,-0.13441 -0.0971,-0.14711 -0.18918,-0.14711 h -0.0362 v -0.0773 c 0.10028,0 0.25347,0.0101 0.37941,0.0101 0.12753,0 0.28099,-0.0101 0.40111,-0.0101 v 0.0773 h -0.0357 c -0.0921,0 -0.18917,0.0127 -0.18917,0.14711 v 1.34911 c 0,0.1344 0.0971,0.1471 0.18917,0.1471 h 0.0357 v 0.0775 c -0.1225,0 -0.27649,-0.0103 -0.40402,-0.0103 -0.12514,0 -0.27596,0.0103 -0.37623,0.0103 v -0.0775 z"
         id="path5255" />
      <path
         style="fill:#000000;stroke-width:0.26458332"
         d="m 68.044164,164.77245 c -0.12382,0 -0.27675,-0.0103 -0.40428,-0.0103 -0.12515,0 -0.27543,0.0103 -0.37597,0.0103 h -0.0109 v -0.0109 -0.0775 -0.0111 h 0.0109 0.036 c 0.0929,-0.003 0.17727,-0.0101 0.17806,-0.13599 v -1.34911 c -7.9e-4,-0.12621 -0.0852,-0.13441 -0.17806,-0.13626 h -0.0468 v -0.0109 -0.0889 h 0.0109 c 0.10054,0 0.254,0.0106 0.37914,0.0106 0.127,0 0.2802,-0.0106 0.40138,-0.0106 h 0.0114 v 0.0116 0.0881 h -0.0114 -0.036 c -0.0926,0.002 -0.1778,0.0101 -0.17833,0.13626 v 1.34911 c 5.3e-4,0.12594 0.0855,0.13335 0.17833,0.13599 h 0.0474 v 0.0111 0.0884 z m -0.0111,-0.022 v 0 -0.055 h -0.0249 c -0.0916,0 -0.20003,-0.0159 -0.20056,-0.15848 v -1.34911 c 5.3e-4,-0.14235 0.10901,-0.15849 0.20056,-0.15849 h 0.0249 v -0.0545 c -0.11774,0 -0.26617,0.01 -0.39026,0.01 -0.12171,0 -0.26882,-0.009 -0.36777,-0.01 v 0.0545 h 0.0243 c 0.0915,0 0.20055,0.0161 0.20055,0.15849 v 1.34911 c 0,0.14261 -0.109,0.15848 -0.20055,0.15848 h -0.0243 v 0.055 c 0.099,-0.001 0.24368,-0.0103 0.36459,-0.0103 0.12489,0 0.27305,0.01 0.39344,0.0103 z"
         id="path5257" />
      <path
         style="fill:#000000;stroke-width:0.26458332"
         d="m 69.801524,164.2536 0.005,-0.005 v -0.96546 c 0,-0.21141 -0.14579,-0.2421 -0.22278,-0.2421 h -0.0564 v -0.0773 c 0.12039,0 0.23813,0.0101 0.35825,0.0101 0.10477,0 0.21034,-0.0101 0.31485,-0.0101 v 0.0773 h -0.0386 c -0.10742,0 -0.2278,0.0204 -0.2278,0.32703 v 1.1721 c 0,0.09 0.003,0.17992 0.0156,0.25982 h -0.0976 l -1.31709,-1.47849 v 1.06124 c 0,0.22411 0.0431,0.30136 0.24051,0.30136 h 0.0431 v 0.0775 c -0.1098,0 -0.2196,-0.0103 -0.32993,-0.0103 -0.11483,0 -0.23257,0.0103 -0.34767,0.0103 v -0.0775 h 0.036 c 0.17647,0 0.23019,-0.12091 0.23019,-0.32676 v -1.08505 c 0,-0.1442 -0.11827,-0.23125 -0.23257,-0.23125 h -0.0336 v -0.0773 c 0.0974,0 0.19685,0.0101 0.29396,0.0101 0.077,0 0.15107,-0.0101 0.2278,-0.0101 z"
         id="path5259" />
      <path
         style="fill:#000000;stroke-width:0.26458332"
         d="m 69.949434,164.81107 -0.10531,-0.004 -1.29804,-1.4568 v 1.03188 c 0.003,0.22384 0.037,0.2876 0.22939,0.29025 h 0.0548 v 0.0111 0.0884 h -0.0114 c -0.11059,0 -0.22092,-0.0103 -0.32993,-0.0103 -0.11457,0 -0.23204,0.0103 -0.34767,0.0103 h -0.0114 v -0.0109 -0.0886 h 0.0114 0.036 c 0.16907,-0.001 0.21722,-0.11033 0.21934,-0.31565 v -1.08453 c -5.3e-4,-0.13732 -0.11219,-0.22066 -0.22172,-0.22092 h -0.045 v -0.0114 -0.0878 h 0.0114 c 0.0976,0 0.19791,0.0101 0.29369,0.0101 0.0762,0 0.15002,-0.0101 0.23654,-0.006 l 1.12421,1.2737 v -0.94721 c -10e-4,-0.20452 -0.13731,-0.22939 -0.21166,-0.23124 h -0.0677 v -0.0114 -0.0878 h 0.0114 c 0.12092,0 0.23866,0.0101 0.35825,0.0101 0.10424,0 0.20875,-0.0101 0.31459,-0.0101 h 0.0111 v 0.0111 0.0881 h -0.0111 -0.0384 c -0.1053,0.003 -0.21405,0.0124 -0.21696,0.31617 v 1.17184 c 0,0.0902 0.003,0.18018 0.0154,0.2585 l 0.002,0.013 z m -0.0971,-0.0228 v 0 h 0.0847 c -0.0116,-0.077 -0.0138,-0.16298 -0.0138,-0.24844 v -1.17184 c 0,-0.3093 0.12859,-0.33841 0.23866,-0.33841 h 0.0273 v -0.0545 c -0.10107,5.3e-4 -0.20188,0.01 -0.30348,0.01 -0.11694,0 -0.23098,-0.009 -0.34687,-0.01 l -2.6e-4,0.0545 h 0.0452 c 0.0786,0 0.23416,0.0355 0.23416,0.25348 l -0.004,0.9734 -0.006,0.006 -0.008,0.008 -1.13745,-1.29487 c -0.0759,0 -0.15002,0.01 -0.2278,0.01 -0.0939,0 -0.19024,-0.009 -0.28258,-0.01 l -5.3e-4,0.0545 h 0.0228 c 0.11985,0 0.24315,0.0923 0.24315,0.24315 v 1.08453 c 0,0.20585 -0.0569,0.33761 -0.24077,0.33867 l -0.0246,-0.001 v 0.0556 c 0.11086,-10e-4 0.2249,-0.0106 0.33629,-0.0106 0.10689,0 0.21352,0.009 0.31882,0.0106 v -0.0542 h -0.0323 c -0.20135,-0.001 -0.25135,-0.0894 -0.25135,-0.31327 v -1.09034 z m -0.0508,-0.53472 v 0 l 0.008,-0.007 z m -0.006,-0.005 v 0 -7.9e-4 l -0.002,-0.002 z"
         id="path5261" />
      <path
         style="fill:#000000;stroke-width:0.26458332"
         d="m 70.583374,163.09208 c -0.19182,0 -0.19897,0.0466 -0.23707,0.23442 h -0.077 c 0.0101,-0.0717 0.0228,-0.14367 0.0304,-0.21881 0.0103,-0.072 0.0153,-0.14394 0.0153,-0.21881 h 0.0617 c 0.0204,0.0775 0.0841,0.0749 0.15372,0.0749 h 1.31948 c 0.0691,0 0.13282,-0.002 0.13811,-0.0799 l 0.0611,0.0101 c -0.01,0.0699 -0.0204,0.13917 -0.0278,0.20876 -0.005,0.0696 -0.005,0.13891 -0.005,0.20823 l -0.077,0.0288 c -0.006,-0.095 -0.0182,-0.24792 -0.18944,-0.24792 h -0.41963 v 1.37054 c 0,0.19844 0.0897,0.22146 0.21193,0.22146 h 0.0489 v 0.0775 c -0.0998,0 -0.27913,-0.0103 -0.41672,-0.0103 -0.15319,0 -0.33284,0.0103 -0.43286,0.0103 v -0.0775 h 0.0492 c 0.14075,0 0.21193,-0.013 0.21193,-0.2159 v -1.37583 z"
         id="path5263" />
      <path
         style="fill:#000000;stroke-width:0.26458332"
         d="m 71.591964,164.77245 c -0.10081,0 -0.27993,-0.0103 -0.41725,-0.0103 -0.15319,0 -0.33205,0.0103 -0.43286,0.0103 h -0.0101 v -0.0109 -0.0886 h 0.0103 0.0492 c 0.14102,-0.004 0.19738,-0.006 0.20108,-0.20479 v -1.36498 h -0.40878 v -0.0111 -0.0114 h 0.43074 v 1.38721 c 0,0.20664 -0.0828,0.22728 -0.22304,0.22781 h -0.0378 v 0.0537 c 0.1008,-5.3e-4 0.27278,-0.01 0.42148,-0.01 0.13361,0 0.30427,0.009 0.4056,0.01 v -0.0534 h -0.0376 c -0.12356,-5.3e-4 -0.22331,-0.031 -0.22331,-0.23336 v -1.38192 h 0.43075 c 0.17145,7.9e-4 0.19394,0.1479 0.19976,0.24342 l 0.0553,-0.0204 c 0,-0.0675 0,-0.13467 0.005,-0.20267 0.007,-0.0664 0.0167,-0.13202 0.0262,-0.19738 l -0.0392,-0.007 c -0.0116,0.0751 -0.0836,0.0788 -0.14764,0.0783 h -1.31947 -0.0132 c -0.0603,0 -0.12621,-0.003 -0.14896,-0.0751 h -0.0423 c -5.3e-4,0.0714 -0.005,0.14049 -0.0151,0.20902 -0.008,0.0709 -0.0193,0.13891 -0.0288,0.20664 h 0.0548 c 0.0339,-0.17939 0.0558,-0.2376 0.24659,-0.23495 v 0.0114 0.0111 c -0.18891,0.004 -0.18494,0.0357 -0.22648,0.22595 l -0.002,0.009 h -0.009 -0.09 l 0.002,-0.0135 c 0.0103,-0.0717 0.0233,-0.14393 0.0307,-0.21881 0.0106,-0.0714 0.0159,-0.14287 0.0159,-0.21696 v -0.0111 h 0.0106 0.0706 l 0.002,0.008 c 0.0175,0.0651 0.0651,0.0653 0.13017,0.0664 h 0.0132 1.31948 c 0.0712,-0.001 0.12303,-0.002 0.127,-0.0696 l 10e-4,-0.0119 0.0114,0.003 0.0722,0.0111 -0.002,0.0111 c -0.0103,0.0693 -0.0201,0.1389 -0.0275,0.20769 -0.006,0.0691 -0.006,0.13838 -0.006,0.2077 v 0.008 l -0.007,0.003 -0.091,0.0328 -5.3e-4,-0.0151 c -0.007,-0.0966 -0.0169,-0.23707 -0.17859,-0.23707 h -0.40852 v 1.35943 c 0.003,0.19394 0.0791,0.2077 0.20082,0.21034 h 0.0603 v 0.0108 0.0886 h -0.0114 z"
         id="path5265" />
      <path
         style="fill:#000000;stroke-width:0.26458332"
         d="m 72.131184,164.68407 h 0.0357 c 0.0923,0 0.18971,-0.0127 0.18971,-0.1471 v -1.34911 c 0,-0.13441 -0.0974,-0.14711 -0.18971,-0.14711 h -0.0357 v -0.0773 c 0.15611,0 0.42228,0.0101 0.63632,0.0101 0.21564,0 0.48128,-0.0101 0.65511,-0.0101 -0.004,0.11059 -0.002,0.28125 0.006,0.3937 l -0.077,0.0206 c -0.0124,-0.16722 -0.0431,-0.30083 -0.31167,-0.30083 h -0.3556 v 0.67442 h 0.30453 c 0.15293,0 0.18653,-0.0873 0.20188,-0.22675 h 0.0762 c -0.005,0.10081 -0.007,0.20108 -0.007,0.30163 0,0.0979 0.002,0.19579 0.007,0.29342 l -0.0762,0.0153 c -0.0154,-0.15451 -0.023,-0.25453 -0.19976,-0.25453 h -0.30639 v 0.60008 c 0,0.16748 0.1479,0.16748 0.31141,0.16748 0.30745,0 0.44265,-0.0209 0.51965,-0.31432 l 0.0717,0.0177 c -0.0339,0.13706 -0.0638,0.27305 -0.0865,0.40984 -0.16378,0 -0.45826,-0.0103 -0.68818,-0.0103 -0.23098,0 -0.53499,0.0103 -0.68077,0.0103 v -0.0773 z"
         id="path5267" />
      <path
         style="fill:#000000;stroke-width:0.26458332"
         d="m 73.499344,164.77245 c -0.16378,0 -0.45826,-0.0106 -0.68818,-0.0106 -0.23045,0 -0.53419,0.0106 -0.68024,0.0106 h -0.0109 v -0.0109 -0.0775 -0.0111 h 0.0109 0.0357 c 0.0931,-0.002 0.177,-0.0101 0.17832,-0.13599 v -1.34911 c -0.001,-0.12568 -0.0852,-0.13441 -0.17832,-0.13626 h -0.0466 v -0.0109 -0.0884 h 0.0109 c 0.1561,0 0.42227,0.0101 0.63632,0.0101 0.21511,0 0.48022,-0.0101 0.65511,-0.0101 h 0.0114 l -5.2e-4,0.0111 c -0.002,0.0392 -0.002,0.0847 -0.002,0.13335 0,0.0892 0.002,0.18653 0.007,0.25982 l 5.3e-4,0.009 -0.008,0.003 -0.0902,0.0235 -5.3e-4,-0.0135 c -0.0151,-0.16722 -0.037,-0.2884 -0.30056,-0.29078 h -0.34449 l -5.3e-4,0.65194 h 0.29395 c 0.14685,-0.002 0.1733,-0.0775 0.19077,-0.2159 l 10e-4,-0.0103 h 0.0101 0.0881 l -2.7e-4,0.0119 c -0.005,0.10002 -0.008,0.20029 -0.008,0.30084 0,0.0976 0.004,0.19526 0.008,0.29315 l 2.7e-4,0.009 -0.009,0.002 -0.0889,0.018 -0.001,-0.0122 c -0.0175,-0.15717 -0.0188,-0.24342 -0.18865,-0.24527 h -0.29581 v 0.58923 c 2.7e-4,0.15636 0.13415,0.15531 0.30084,0.15636 0.30797,-0.002 0.43206,-0.0167 0.50905,-0.30612 l 0.002,-0.01 0.0108,0.002 0.0823,0.0209 -0.003,0.0109 c -0.0331,0.13652 -0.0638,0.27252 -0.0868,0.40904 l -0.002,0.009 h -0.009 z m -0.009,-0.0228 v 0 c 0.0222,-0.12938 0.0513,-0.25956 0.0828,-0.38973 l -0.05,-0.0127 c -0.077,0.2884 -0.22543,0.3138 -0.52732,0.31194 -0.1606,0 -0.32226,0 -0.32279,-0.17859 v -0.61172 h 0.31777 c 0.17833,-0.002 0.19658,0.10663 0.20955,0.25347 l 0.055,-0.0116 c -0.005,-0.0947 -0.007,-0.18997 -0.007,-0.28442 0,-0.0968 0.003,-0.19342 0.007,-0.29025 h -0.055 c -0.0143,0.13388 -0.0561,0.22807 -0.21167,0.22622 h -0.31565 v -0.69718 h 0.36672 c 0.26617,-0.002 0.31035,0.13652 0.32173,0.29818 l 0.0553,-0.0148 c -0.005,-0.0725 -0.008,-0.1659 -0.008,-0.25189 0,-0.0439 0.001,-0.0857 0.003,-0.12197 -0.17383,5.3e-4 -0.43312,0.01 -0.64373,0.01 -0.21008,0 -0.46858,-0.009 -0.62548,-0.01 v 0.0545 h 0.0249 c 0.0916,0 0.20056,0.0161 0.20056,0.15848 v 1.34911 c 0,0.14208 -0.10901,0.15796 -0.20056,0.15902 h -0.0251 v 0.0537 c 0.14922,0 0.44503,-0.01 0.66939,-0.01 0.22596,2.7e-4 0.5133,0.01 0.67866,0.01 z"
         id="path5269" />
      <path
         style="fill:#000000;stroke-width:0.26458332"
         d="m 73.931674,163.23654 c 0,-0.18786 -0.10213,-0.19553 -0.18177,-0.19553 h -0.0466 v -0.0775 c 0.0823,0 0.24024,0.0103 0.39687,0.0103 0.15346,0 0.27649,-0.0103 0.41169,-0.0103 0.32226,0 0.60934,0.0878 0.60934,0.45376 0,0.23125 -0.15346,0.37333 -0.3556,0.45323 l 0.43709,0.65881 c 0.0717,0.10875 0.12224,0.13944 0.24738,0.15452 v 0.0778 c -0.0836,0 -0.16589,-0.0103 -0.24976,-0.0103 -0.0791,0 -0.16166,0.0103 -0.24051,0.0103 -0.19685,-0.26035 -0.36592,-0.53817 -0.53234,-0.8345 h -0.16801 v 0.55113 c 0,0.19844 0.0918,0.20584 0.20902,0.20584 h 0.0463 v 0.0775 c -0.14631,0 -0.29395,-0.0103 -0.44026,-0.0103 -0.12251,0 -0.24289,0.0103 -0.37095,0.0103 v -0.0775 h 0.0466 c 0.0947,0 0.18177,-0.0434 0.18177,-0.1389 v -1.30863 z m 0.32808,0.59743 v 0 h 0.12462 c 0.25585,0 0.39397,-0.0976 0.39397,-0.40217 0,-0.2286 -0.14605,-0.37571 -0.37386,-0.37571 -0.0765,0 -0.10901,0.008 -0.14473,0.0106 z"
         id="path5271" />
      <path
         style="fill:#000000;stroke-width:0.26458332"
         d="m 75.450384,164.77245 c -0.0852,0 -0.16642,-0.0103 -0.2503,-0.0103 -0.0781,0 -0.15981,0.0103 -0.24871,0.006 -0.19632,-0.25903 -0.36433,-0.53525 -0.52969,-0.83 h -0.15134 v 0.53975 c 0.003,0.19367 0.0802,0.19209 0.19843,0.195 h 0.0574 v 0.0111 0.0884 h -0.0114 c -0.14631,0 -0.29448,-0.0103 -0.43974,-0.0103 -0.1225,0 -0.24182,0.0103 -0.37094,0.0103 h -0.0108 v -0.0109 -0.0886 h 0.0108 0.0466 c 0.0921,-8e-4 0.16986,-0.041 0.17012,-0.1278 v -1.30836 c -0.002,-0.18283 -0.0905,-0.18203 -0.17012,-0.18468 h -0.0574 v -0.0109 -0.0886 h 0.0108 c 0.0831,0 0.2413,0.0103 0.39687,0.0103 0.15293,0 0.27544,-0.0103 0.41196,-0.0103 0.32253,5.3e-4 0.61965,0.0902 0.62018,0.46408 0,0.23256 -0.15293,0.37809 -0.34978,0.45878 l 0.42942,0.64797 c 0.0717,0.10662 0.11616,0.13335 0.23998,0.14949 l 0.009,0.001 v 0.01 0.0884 h -0.0114 z m -1.19116,-0.85699 v 0 h 0.17463 l 0.003,0.006 c 0.16696,0.2958 0.33497,0.57361 0.52309,0.8292 0.0783,0 0.16007,-0.0106 0.23997,-0.0106 0.0818,0 0.16034,0.009 0.23945,0.0103 v -0.0566 c -0.11933,-0.0153 -0.17568,-0.0511 -0.24553,-0.15795 l -0.44556,-0.67072 0.013,-0.005 c 0.20003,-0.0794 0.3482,-0.21696 0.3482,-0.44344 0,-0.35719 -0.27596,-0.44027 -0.59743,-0.44133 -0.13494,0 -0.25797,0.01 -0.41196,0.01 -0.15028,0 -0.30189,-0.009 -0.3855,-0.01 v 0.0545 h 0.0352 c 0.0796,0 0.19235,0.0132 0.19235,0.2069 v 1.30836 c 0,0.10372 -0.096,0.15082 -0.19235,0.15082 h -0.0352 v 0.0542 c 0.12277,-5.3e-4 0.23945,-0.0103 0.35957,-0.0103 0.14314,0 0.28734,0.01 0.42889,0.0103 v -0.0534 h -0.0352 c -0.11642,0 -0.22066,-0.0151 -0.22066,-0.21828 v -0.56224 z m 0,-0.0704 v 0 h -0.0114 v -0.7887 l 0.01,-5.3e-4 c 0.0352,-0.003 0.0699,-0.0103 0.14684,-0.0103 0.23363,0 0.38497,0.1524 0.38497,0.38735 -5.3e-4,0.30745 -0.14737,0.41222 -0.40508,0.41249 h -0.12515 z m 0.12489,-0.0225 v 0 c 0.25373,-0.002 0.38047,-0.0905 0.38338,-0.38999 -0.002,-0.22517 -0.14023,-0.3646 -0.36327,-0.36539 -0.0693,0 -0.10187,0.006 -0.13441,0.009 v 0.74586 h 0.1143 z"
         id="path5273" />
      <path
         style="fill:#000000;stroke-width:0.26458332"
         d="m 77.186314,164.2536 0.005,-0.005 v -0.96546 c 0,-0.21141 -0.14579,-0.2421 -0.22225,-0.2421 h -0.0553 v -0.0773 c 0.11933,0 0.2368,0.0101 0.35719,0.0101 0.10504,0 0.20981,-0.0101 0.31512,-0.0101 v 0.0773 h -0.0386 c -0.10742,0 -0.22728,0.0204 -0.22728,0.32703 v 1.1721 c 0,0.09 0.003,0.17992 0.0148,0.25982 h -0.0968 l -1.31657,-1.47849 v 1.06124 c 0,0.22411 0.0437,0.30136 0.24051,0.30136 h 0.0434 v 0.0775 c -0.10954,0 -0.21987,-0.0103 -0.32941,-0.0103 -0.11588,0 -0.23362,0.0103 -0.34792,0.0103 v -0.0775 h 0.0352 c 0.17674,0 0.23045,-0.12091 0.23045,-0.32676 v -1.08505 c 0,-0.1442 -0.11748,-0.23125 -0.23257,-0.23125 h -0.0331 v -0.0773 c 0.0966,0 0.19711,0.0101 0.29395,0.0101 0.0759,0 0.15081,-0.0101 0.22781,-0.0101 z"
         id="path5275" />
      <path
         style="fill:#000000;stroke-width:0.26458332"
         d="m 77.334214,164.81107 -0.1053,-0.004 -1.29672,-1.4568 v 1.03188 c 0.003,0.22384 0.0368,0.2876 0.22992,0.29025 h 0.0537 v 0.0111 0.0884 h -0.0116 c -0.10981,0 -0.21961,-0.0106 -0.32941,-0.0106 -0.11456,0 -0.23257,0.0106 -0.3474,0.0106 h -0.0119 v -0.0109 -0.0886 h 0.0119 0.0352 c 0.16854,-8e-4 0.21749,-0.11033 0.21908,-0.31618 v -1.08453 c -5.3e-4,-0.13705 -0.11219,-0.22039 -0.22119,-0.22039 h -0.045 v -0.0109 -0.0889 h 0.0119 c 0.0971,0 0.19738,0.0106 0.29395,0.0106 0.0749,0 0.14923,-0.0106 0.23495,-0.007 l 1.12316,1.2745 v -0.94747 c -5.3e-4,-0.20453 -0.13652,-0.22966 -0.2114,-0.23098 h -0.0659 v -0.0109 -0.0889 h 0.0111 c 0.11959,0 0.23733,0.0106 0.35719,0.0106 0.10451,0 0.20928,-0.0106 0.31459,-0.0106 h 0.0109 v 0.0116 0.0881 h -0.0109 -0.0384 c -0.1053,0.003 -0.21431,0.0124 -0.21696,0.31617 v 1.17184 c 0,0.0902 0.003,0.17965 0.0156,0.25876 l 10e-4,0.0127 z m -0.0971,-0.0228 v 0 h 0.0836 c -0.0109,-0.077 -0.0132,-0.16298 -0.0132,-0.24844 v -1.17184 c 0,-0.3093 0.12938,-0.33788 0.23892,-0.33841 h 0.027 v -0.0545 c -0.10028,5.3e-4 -0.20188,0.01 -0.30322,0.01 -0.11721,0 -0.23124,-0.009 -0.34739,-0.01 v 0.0545 h 0.045 c 0.0791,5.3e-4 0.23416,0.0355 0.23416,0.25321 l -0.004,0.97367 -0.005,0.006 -0.008,0.008 -1.13797,-1.29514 c -0.0754,0 -0.14923,0.01 -0.22675,0.01 -0.095,0 -0.19076,-0.009 -0.28363,-0.01 v 0.0545 h 0.0228 c 0.12012,5.3e-4 0.24342,0.0918 0.24342,0.24263 v 1.08452 c 0,0.20638 -0.0579,0.33814 -0.2413,0.3392 l -0.0249,-5.3e-4 v 0.0542 c 0.11033,-5.3e-4 0.22463,-0.01 0.33681,-0.01 0.10716,0 0.21352,0.009 0.31909,0.01 v -0.0537 h -0.0317 c -0.20161,-5.3e-4 -0.25215,-0.0894 -0.25268,-0.31327 v -1.08955 z m -0.0508,-0.53472 v 0 l 0.007,-0.007 z m -0.007,-0.005 v 0 -5.3e-4 l -0.002,-0.002 z"
         id="path5277" />
      <path
         style="fill:#000000;stroke-width:0.26458332"
         d="m 77.996994,164.39303 c -0.0262,0.0876 -0.0572,0.15478 -0.0572,0.20082 0,0.0775 0.10769,0.0902 0.19209,0.0902 h 0.028 v 0.0775 c -0.10213,-0.006 -0.20691,-0.0103 -0.30983,-0.0103 -0.0921,0 -0.18336,0.005 -0.2757,0.0103 v -0.0775 h 0.0153 c 0.0998,0 0.18441,-0.0595 0.22225,-0.16774 l 0.40984,-1.18163 c 0.0331,-0.0955 0.0796,-0.22437 0.0947,-0.32015 0.0815,-0.0278 0.18468,-0.0794 0.23283,-0.11033 0.008,-0.003 0.0124,-0.005 0.0201,-0.005 0.008,0 0.013,0 0.0185,0.008 0.007,0.0201 0.0145,0.0437 0.0233,0.064 l 0.47016,1.34726 c 0.0304,0.09 0.0608,0.1852 0.0939,0.26273 0.0312,0.072 0.0852,0.10292 0.1696,0.10292 h 0.0153 v 0.0775 c -0.11509,-0.006 -0.23019,-0.0103 -0.35295,-0.0103 -0.12542,0 -0.25374,0.005 -0.38391,0.0103 v -0.0775 h 0.0286 c 0.0585,0 0.15822,-0.0103 0.15822,-0.0746 0,-0.0333 -0.0228,-0.10266 -0.0516,-0.18548 l -0.0992,-0.29897 h -0.58129 z m 0.37333,-1.14088 v 0 h -0.006 l -0.23759,0.72866 h 0.47837 z"
         id="path5279" />
      <path
         style="fill:#000000;stroke-width:0.26458332"
         d="m 79.359604,164.77245 c -0.1151,-0.005 -0.23019,-0.0106 -0.35216,-0.0106 -0.12542,0 -0.25242,0.006 -0.38365,0.0106 l -0.0119,0.001 v -0.0119 -0.0894 h 0.0116 0.028 c 0.0595,0 0.14738,-0.0132 0.14738,-0.0624 5.2e-4,-0.0294 -0.0225,-0.10055 -0.0505,-0.1823 l -0.0971,-0.29104 h -0.56515 l -0.0794,0.25982 c -0.0259,0.0881 -0.0569,0.1561 -0.0563,0.19791 0.001,0.063 0.0963,0.078 0.1815,0.078 h 0.0392 v 0.0119 0.0894 l -0.0116,-0.001 c -0.1024,-0.005 -0.20691,-0.0106 -0.30877,-0.0106 -0.0916,0 -0.18389,0.006 -0.2757,0.0106 l -0.0116,0.001 v -0.0119 -0.0894 h 0.0111 0.0153 c 0.095,0 0.17462,-0.0545 0.2114,-0.15928 l 0.40958,-1.18216 c 0.0339,-0.0953 0.0802,-0.22384 0.10213,-0.32676 0.0802,-0.0273 0.18335,-0.0791 0.23256,-0.11033 0.007,-0.002 0.0146,-0.006 0.0249,-0.006 0.006,-2.7e-4 0.0198,0.002 0.028,0.0151 0.007,0.0214 0.0154,0.0444 0.023,0.0651 l 0.47122,1.34699 c 0.0302,0.0902 0.0606,0.18574 0.0937,0.26167 0.0302,0.0685 0.077,0.0955 0.15927,0.0955 h 0.0267 v 0.0119 0.0894 z m -0.7247,-0.0233 v 0 c 0.12647,-0.005 0.2503,-0.009 0.37254,-0.009 0.1188,0 0.23018,0.005 0.34131,0.009 v -0.0532 h -0.004 c -0.0873,2.7e-4 -0.14791,-0.0341 -0.17939,-0.1106 -0.0333,-0.0781 -0.0646,-0.17356 -0.095,-0.26352 l -0.47016,-1.34673 c -0.008,-0.0206 -0.0156,-0.0442 -0.0222,-0.0619 -0.002,-0.003 -0.002,-0.003 -0.004,-0.003 h -0.005 c -0.005,0 -0.008,0.001 -0.0153,0.003 -0.0495,0.0323 -0.15187,0.0831 -0.22807,0.10292 -0.0156,0.0976 -0.0614,0.22622 -0.095,0.32173 l -0.40904,1.18216 c -0.0394,0.11166 -0.12885,0.17569 -0.23283,0.17569 h -0.004 v 0.0532 c 0.0876,-0.005 0.17621,-0.009 0.26511,-0.009 0.0987,0 0.19976,0.005 0.29766,0.009 v -0.0534 h -0.0167 c -0.0831,-0.001 -0.19976,-0.0106 -0.20293,-0.10186 0,-0.0513 0.0317,-0.11721 0.0566,-0.204 l 0.0114,0.003 -0.0114,-0.004 0.0836,-0.27543 h 0.59742 l 0.1024,0.30639 c 0.0288,0.0825 0.0521,0.15081 0.0521,0.18891 -0.003,0.0791 -0.11139,0.0844 -0.1696,0.0865 h -0.0161 z m -0.52334,-0.75724 v 0 l 0.24474,-0.75141 h 0.008 0.006 v 0.0114 l -0.003,5.3e-4 0.003,-5.3e-4 v -0.0111 h 0.007 l 0.24368,0.75142 h -0.50906 z m 0.0299,-0.0225 v 0 h 0.4482 l -0.22278,-0.69003 z m 0.21748,-0.71437 v 0 l 0.006,-0.002 z"
         id="path5281" />
      <path
         style="fill:#000000;stroke-width:0.26458332"
         d="m 79.472574,163.09208 c -0.19155,0 -0.19923,0.0466 -0.23733,0.23442 h -0.077 c 0.01,-0.0717 0.0228,-0.14367 0.031,-0.21881 0.0103,-0.072 0.0151,-0.14394 0.0151,-0.21881 h 0.0614 c 0.0204,0.0775 0.0847,0.0749 0.15346,0.0749 h 1.32027 c 0.0688,0 0.13256,-0.002 0.13785,-0.0799 l 0.0608,0.0101 c -0.01,0.0699 -0.0196,0.13917 -0.0275,0.20876 -0.006,0.0696 -0.006,0.13891 -0.006,0.20823 l -0.0762,0.0288 c -0.005,-0.095 -0.0175,-0.24792 -0.18918,-0.24792 h -0.41963 v 1.37054 c 0,0.19844 0.09,0.22146 0.21193,0.22146 h 0.0489 v 0.0775 c -0.0995,0 -0.27834,-0.0103 -0.41672,-0.0103 -0.15293,0 -0.33284,0.0103 -0.43259,0.0103 v -0.0775 h 0.0484 c 0.14076,0 0.21325,-0.013 0.21325,-0.2159 v -1.37583 z"
         id="path5283" />
      <path
         style="fill:#000000;stroke-width:0.26458332"
         d="m 80.480644,164.77245 c -0.10054,0 -0.2794,-0.0103 -0.41672,-0.0103 -0.15293,0 -0.33232,0.0103 -0.4326,0.0103 h -0.0114 v -0.0109 -0.0886 h 0.0114 0.0484 c 0.14076,-0.004 0.19765,-0.006 0.20135,-0.20479 l -5.3e-4,-1.36472 h -0.40799 v -0.0111 -0.0114 h 0.43101 v 1.38721 c 0,0.20664 -0.0831,0.22675 -0.22384,0.22728 h -0.0378 v 0.055 c 0.1016,-0.001 0.27358,-0.0103 0.42201,-0.0103 0.13335,0 0.30453,0.009 0.4056,0.0103 v -0.055 h -0.0378 c -0.12303,-5.3e-4 -0.22304,-0.0302 -0.22304,-0.23283 v -1.38192 h 0.43074 c 0.17145,7.9e-4 0.19394,0.1479 0.19896,0.24342 l 0.0558,-0.0204 c 0,-0.0675 0,-0.13467 0.005,-0.2024 0.007,-0.0664 0.0167,-0.13229 0.0265,-0.19765 l -0.0386,-0.007 c -0.0116,0.0751 -0.0841,0.0791 -0.1479,0.0783 h -1.32027 -0.013 c -0.0606,5.3e-4 -0.12594,-0.003 -0.14896,-0.0754 h -0.0418 c -5.3e-4,0.0717 -0.006,0.14076 -0.0156,0.20929 -0.006,0.0712 -0.0193,0.13917 -0.0288,0.20664 h 0.055 c 0.0336,-0.17939 0.0558,-0.2376 0.24686,-0.23495 v 0.0114 0.0111 c -0.18944,0.004 -0.18521,0.0357 -0.22701,0.22595 l -0.002,0.009 h -0.008 -0.0905 l 0.002,-0.0127 c 0.0103,-0.0728 0.0236,-0.14472 0.0309,-0.21907 0.01,-0.0717 0.0151,-0.14314 0.0151,-0.21749 v -0.0111 h 0.0109 0.0698 l 0.002,0.008 c 0.018,0.0651 0.0646,0.0653 0.13017,0.0664 l 0.013,5.3e-4 h 1.32027 c 0.0709,-0.002 0.12224,-0.002 0.12674,-0.0699 l 5.2e-4,-0.0122 0.0117,0.003 0.0728,0.0111 -0.002,0.0111 c -0.0106,0.0693 -0.0204,0.1389 -0.028,0.20769 -0.005,0.0691 -0.005,0.13865 -0.005,0.2077 v 0.008 l -0.007,0.003 -0.0907,0.0328 -0.001,-0.0151 c -0.006,-0.0966 -0.0167,-0.23707 -0.1778,-0.23707 h -0.40825 v 1.35943 c 0.002,0.19394 0.0786,0.2077 0.20055,0.21034 h 0.0601 v 0.0111 0.0884 h -0.0111 z"
         id="path5285" />
      <path
         style="fill:#000000;stroke-width:0.26458332"
         d="m 81.032824,164.68407 h 0.0362 c 0.0926,0 0.18891,-0.0127 0.18891,-0.1471 v -1.34911 c 0,-0.13441 -0.0963,-0.14711 -0.18891,-0.14711 h -0.0362 v -0.0773 c 0.10002,0 0.25321,0.0101 0.37836,0.0101 0.12806,0 0.28151,-0.0101 0.40216,-0.0101 v 0.0773 h -0.0357 c -0.0921,0 -0.19023,0.0127 -0.19023,0.14711 v 1.34911 c 0,0.1344 0.0982,0.1471 0.19023,0.1471 h 0.0357 v 0.0775 c -0.12303,0 -0.27702,-0.0103 -0.40428,-0.0103 -0.12541,0 -0.27596,0.0103 -0.37597,0.0103 v -0.0775 z"
         id="path5287" />
      <path
         style="fill:#000000;stroke-width:0.26458332"
         d="m 81.813084,164.77245 c -0.12356,0 -0.27702,-0.0106 -0.40428,-0.0106 -0.12515,0 -0.27596,0.0106 -0.37598,0.0106 h -0.0111 v -0.0109 -0.0775 -0.0111 h 0.0111 0.0362 c 0.0926,-0.002 0.17701,-0.01 0.17727,-0.13599 v -1.34911 c -2.6e-4,-0.12568 -0.0847,-0.13441 -0.17727,-0.13626 h -0.0474 v -0.0109 -0.0884 h 0.0111 c 0.10002,0 0.25347,0.0101 0.37836,0.0101 0.12753,0 0.28125,-0.0101 0.40216,-0.0101 h 0.0109 v 0.0111 0.0881 h -0.0109 -0.0357 c -0.0937,0.002 -0.1778,0.0106 -0.17885,0.13626 v 1.34911 c 0.001,0.12647 0.0852,0.1344 0.17885,0.13599 h 0.0466 v 0.0111 0.0884 z m -0.0111,-0.0228 v 0 -0.0542 h -0.0246 c -0.0921,0 -0.20055,-0.0164 -0.20055,-0.15848 v -1.34911 c 0,-0.14235 0.10848,-0.15849 0.20055,-0.15849 h 0.0246 v -0.0545 c -0.11827,5.3e-4 -0.26644,0.01 -0.39106,0.01 -0.12118,0 -0.26776,-0.009 -0.36697,-0.01 v 0.0545 h 0.0249 c 0.091,0 0.19949,0.0161 0.20002,0.15849 v 1.34911 c -5.3e-4,0.14208 -0.10901,0.15848 -0.20002,0.15848 h -0.0249 v 0.0542 c 0.0987,-7.9e-4 0.24341,-0.01 0.36459,-0.01 0.12462,0 0.27252,0.009 0.39344,0.01 z"
         id="path5289" />
      <path
         style="fill:#000000;stroke-width:0.26458332"
         d="m 82.833054,162.92486 c 0.54557,0 0.98001,0.34052 0.98001,0.889 0,0.59214 -0.42174,0.9861 -0.96625,0.9861 -0.54266,0 -0.95647,-0.37068 -0.95647,-0.92472 -2.7e-4,-0.53525 0.41116,-0.95038 0.94271,-0.95038 z m 0.0386,1.7616 v 0 c 0.49662,0 0.58287,-0.4408 0.58287,-0.81624 0,-0.37651 -0.20161,-0.83238 -0.62653,-0.83238 -0.44741,0 -0.58023,0.40216 -0.58023,0.74665 0,0.46117 0.20955,0.90197 0.62389,0.90197 z"
         id="path5291" />
      <path
         style="fill:#000000;stroke-width:0.26458332"
         d="m 81.878174,163.87524 c 0.001,-0.54186 0.41751,-0.9607 0.95461,-0.96176 v 0.0114 0.0109 c -0.52519,0 -0.93239,0.40931 -0.93318,0.93953 0.001,0.54769 0.40957,0.91282 0.94694,0.91308 0.53896,-2.6e-4 0.95488,-0.38841 0.95594,-0.97525 -5.3e-4,-0.54134 -0.42889,-0.87657 -0.9697,-0.87736 v -0.0109 -0.0114 c 0.54954,5.3e-4 0.98981,0.34423 0.9914,0.89959 -5.3e-4,0.59848 -0.42836,0.99668 -0.97764,0.99774 -0.54689,-0.001 -0.96705,-0.37544 -0.96837,-0.93557 z m 0.35877,-0.0905 v 0 c 5.3e-4,-0.34634 0.13494,-0.7583 0.59135,-0.7583 0.43418,0.001 0.63685,0.46567 0.63791,0.84376 -0.001,0.37544 -0.0886,0.82708 -0.59452,0.82708 v -0.0108 -0.0109 c 0.48657,-0.001 0.57097,-0.42995 0.57229,-0.80539 0,-0.37333 -0.20002,-0.82048 -0.61568,-0.82101 -0.43895,5.3e-4 -0.56859,0.39238 -0.56939,0.73528 5.3e-4,0.45879 0.20796,0.88979 0.61278,0.89085 v 0.0109 0.0109 c -0.42413,-2.7e-4 -0.63421,-0.44847 -0.63474,-0.91228 z"
         id="path5293" />
      <path
         style="fill:#000000;stroke-width:0.26458332"
         d="m 85.537094,164.2536 0.006,-0.005 v -0.96546 c 0,-0.21141 -0.14658,-0.2421 -0.22305,-0.2421 h -0.0556 v -0.0773 c 0.12012,0 0.2376,0.0101 0.35745,0.0101 0.10504,0 0.20982,-0.0101 0.31512,-0.0101 v 0.0773 h -0.0386 c -0.10689,0 -0.22728,0.0204 -0.22728,0.32703 v 1.1721 c 0,0.09 0.002,0.17992 0.0153,0.25982 h -0.0968 l -1.31762,-1.47849 v 1.06124 c 0,0.22411 0.0429,0.30136 0.24024,0.30136 h 0.0434 v 0.0775 c -0.11007,0 -0.2196,-0.0103 -0.32967,-0.0103 -0.11536,0 -0.2331,0.0103 -0.34819,0.0103 v -0.0775 h 0.036 c 0.17701,0 0.23019,-0.12091 0.23019,-0.32676 v -1.08505 c 0,-0.1442 -0.11695,-0.23125 -0.23283,-0.23125 h -0.0333 v -0.0773 c 0.0971,0 0.19711,0.0101 0.29448,0.0101 0.0765,0 0.15028,-0.0101 0.22728,-0.0101 z"
         id="path5295" />
      <path
         style="fill:#000000;stroke-width:0.26458332"
         d="m 85.685794,164.81107 -0.10584,-0.004 -1.29804,-1.4568 v 1.03188 c 0.003,0.22384 0.0368,0.28734 0.22886,0.28945 h 0.0553 v 0.0119 0.0884 h -0.0114 c -0.11059,0 -0.2204,-0.0103 -0.32967,-0.0103 -0.11483,0 -0.2323,0.0103 -0.34819,0.0103 h -0.0109 v -0.0109 -0.0892 h 0.0109 0.036 c 0.16881,-2.7e-4 0.21723,-0.10954 0.21934,-0.31486 v -1.08505 c 0,-0.13706 -0.11165,-0.2204 -0.22198,-0.2204 h -0.0442 v -0.0109 -0.0884 h 0.0109 c 0.0982,0 0.19764,0.0101 0.29395,0.0101 0.0759,0 0.14976,-0.0101 0.23627,-0.006 l 1.12422,1.2737 v -0.9472 c -8e-4,-0.20453 -0.13732,-0.2294 -0.21167,-0.23125 h -0.0675 v -0.0109 -0.0884 h 0.0114 c 0.12039,0 0.23813,0.0101 0.35772,0.0101 0.10477,0 0.20928,-0.0101 0.31512,-0.0101 h 0.0108 v 0.0111 0.0881 h -0.0108 -0.0386 c -0.10531,0.003 -0.21458,0.0127 -0.21617,0.31618 v 1.17184 c 0,0.0902 0.002,0.17991 0.0143,0.25876 l 0.002,0.0127 h -0.0124 z m -0.0971,-0.0228 v 0 h 0.0836 c -0.0114,-0.077 -0.013,-0.16298 -0.013,-0.24844 v -1.17184 c 0,-0.31009 0.12858,-0.33788 0.23812,-0.33841 h 0.0275 v -0.0545 c -0.10107,5.3e-4 -0.20214,0.01 -0.30401,0.01 -0.11641,0 -0.23098,-0.009 -0.34687,-0.01 v 0.0545 h 0.045 c 0.0791,5.3e-4 0.2331,0.036 0.2331,0.25348 l -0.002,0.9734 -0.005,0.006 -0.008,0.008 -1.1385,-1.29514 c -0.0754,0 -0.14976,0.01 -0.22728,0.01 -0.0942,0 -0.19023,-0.009 -0.28363,-0.01 v 0.0545 h 0.0225 c 0.12012,5.3e-4 0.24394,0.0918 0.24394,0.24263 v 1.08505 c 0,0.20585 -0.0572,0.33761 -0.24077,0.33867 l -0.0257,-5.3e-4 v 0.0542 c 0.11112,-5.3e-4 0.22516,-0.01 0.33734,-0.01 0.10636,0 0.21246,0.009 0.31882,0.01 v -0.0537 h -0.0331 c -0.20082,-5.3e-4 -0.25082,-0.0894 -0.25082,-0.31327 v -1.09034 z m -0.0516,-0.53472 v 0 l 0.008,-0.007 z m -0.006,-0.005 v 0 -5.3e-4 l -0.002,-0.002 z"
         id="path5297" />
      <path
         style="fill:#000000;stroke-width:0.26458332"
         d="m 86.347244,164.39303 c -0.0249,0.0876 -0.0558,0.15478 -0.0558,0.20082 0,0.0775 0.10742,0.0902 0.19129,0.0902 h 0.0283 v 0.0775 c -0.10239,-0.006 -0.2069,-0.0103 -0.30903,-0.0103 -0.0929,0 -0.18442,0.005 -0.27596,0.0103 v -0.0775 h 0.0146 c 0.10001,0 0.18494,-0.0595 0.22278,-0.16774 l 0.40957,-1.18163 c 0.0331,-0.0955 0.0794,-0.22437 0.0942,-0.32015 0.0818,-0.0278 0.18415,-0.0794 0.23363,-0.11033 0.007,-0.003 0.0124,-0.005 0.0201,-0.005 0.007,0 0.0124,0 0.0169,0.008 0.008,0.0201 0.0161,0.0437 0.0236,0.064 l 0.4707,1.34726 c 0.0307,0.09 0.0606,0.1852 0.0947,0.26273 0.0304,0.072 0.0841,0.10292 0.1688,0.10292 h 0.0154 v 0.0775 c -0.11536,-0.006 -0.23046,-0.0103 -0.35296,-0.0103 -0.12541,0 -0.2532,0.005 -0.38338,0.0103 v -0.0775 h 0.0281 c 0.0582,0 0.15875,-0.0103 0.15875,-0.0746 0,-0.0333 -0.023,-0.10266 -0.0519,-0.18548 l -0.0992,-0.29897 h -0.58076 z m 0.37412,-1.14088 v 0 h -0.005 l -0.23812,0.72866 h 0.47863 z"
         id="path5299" />
      <path
         style="fill:#000000;stroke-width:0.26458332"
         d="m 87.709854,164.77245 c -0.11483,-0.005 -0.22993,-0.0103 -0.3519,-0.0103 -0.12488,0 -0.2532,0.006 -0.38338,0.0103 l -0.0114,0.001 v -0.0119 -0.0886 h 0.0114 0.0275 c 0.0598,0 0.1479,-0.014 0.1479,-0.0635 5.3e-4,-0.0294 -0.0225,-0.0995 -0.0513,-0.18203 l -0.0971,-0.29104 h -0.56436 l -0.0796,0.25982 c -0.0249,0.0881 -0.0558,0.1561 -0.0553,0.19764 0,0.0632 0.0961,0.0791 0.18045,0.0791 h 0.0392 v 0.0111 0.0894 l -0.0114,-0.001 c -0.10239,-0.005 -0.2069,-0.0103 -0.3085,-0.0103 -0.0921,0 -0.18389,0.006 -0.27596,0.0103 l -0.0111,0.001 v -0.0119 -0.0886 h 0.0111 0.0146 c 0.095,-7.9e-4 0.17515,-0.0558 0.21246,-0.15981 l 0.40931,-1.18215 c 0.0325,-0.0953 0.0791,-0.22384 0.10186,-0.32597 0.0802,-0.0281 0.18283,-0.0799 0.23257,-0.11113 0.007,-0.002 0.014,-0.006 0.0243,-0.006 0.007,-8e-4 0.0196,0.001 0.0278,0.0151 0.007,0.0201 0.0153,0.0434 0.0235,0.0643 l 0.47043,1.34726 c 0.0307,0.0902 0.0609,0.18574 0.0939,0.26194 0.0299,0.0683 0.077,0.0952 0.15849,0.096 h 0.0267 v 0.0111 0.0894 z m -0.72443,-0.0228 v 0 c 0.12647,-0.005 0.25082,-0.01 0.37253,-0.01 0.1188,0 0.23045,0.005 0.34211,0.009 l -8e-4,-0.0532 h -0.004 c -0.0863,0 -0.14711,-0.0341 -0.17859,-0.1106 -0.0341,-0.0781 -0.064,-0.17356 -0.095,-0.26352 l -0.47069,-1.34673 c -0.008,-0.0206 -0.0156,-0.0442 -0.0214,-0.0614 -0.002,-0.003 -0.002,-0.003 -0.004,-0.003 h -0.005 c -0.006,0 -0.008,0.002 -0.0151,0.003 -0.0495,0.0315 -0.15187,0.0831 -0.2278,0.10292 -0.0159,0.0976 -0.0619,0.22595 -0.095,0.32173 l -0.40984,1.18216 c -0.0386,0.11166 -0.12806,0.17569 -0.23257,0.17569 h -0.004 v 0.0532 c 0.0884,-0.005 0.17621,-0.009 0.26511,-0.009 0.0992,0 0.20003,0.005 0.29872,0.009 v -0.0534 h -0.0175 c -0.0831,-0.001 -0.1995,-0.0106 -0.20268,-0.10213 5.3e-4,-0.0511 0.0323,-0.11642 0.0569,-0.20399 l 0.0103,0.003 -0.0103,-0.004 0.0841,-0.27543 h 0.59637 l 0.10292,0.30612 c 0.0281,0.0828 0.0511,0.15108 0.0511,0.18918 -0.004,0.0791 -0.1106,0.0844 -0.16934,0.0865 h -0.0167 v 0.054 z m -0.52282,-0.75777 v 0 l 0.24554,-0.75141 h 0.008 0.006 v 0.0114 l -0.003,5.3e-4 0.003,-5.3e-4 v -0.0111 h 0.008 l 0.24183,0.75142 h -0.50827 z m 0.0307,-0.0225 v 0 h 0.44715 l -0.22225,-0.6895 z m 0.21723,-0.71437 v 0 l 0.005,-0.002 z"
         id="path5301" />
      <path
         style="fill:#000000;stroke-width:0.26458332"
         d="m 88.355964,164.50892 c 0,0.10319 0.0712,0.13361 0.15293,0.1442 0.10477,0.008 0.21987,0.008 0.33814,-0.005 0.10662,-0.0132 0.19896,-0.0746 0.245,-0.13891 0.0408,-0.0572 0.0635,-0.12885 0.0791,-0.18574 h 0.0743 c -0.028,0.14685 -0.0638,0.29157 -0.0947,0.43815 -0.2249,0 -0.45032,-0.0103 -0.67522,-0.0103 -0.22569,0 -0.44979,0.0103 -0.67521,0.0103 v -0.0778 h 0.0352 c 0.0926,0 0.19289,-0.0124 0.19289,-0.17198 v -1.32371 c 0,-0.13441 -0.10028,-0.14711 -0.19289,-0.14711 h -0.0352 v -0.0773 c 0.1352,0 0.26881,0.0101 0.40348,0.0101 0.13124,0 0.25877,-0.0101 0.38921,-0.0101 v 0.0773 h -0.064 c -0.0968,0 -0.17304,0.003 -0.17304,0.1389 z"
         id="path5303" />
      <path
         style="fill:#000000;stroke-width:0.26458332"
         d="m 89.150774,164.77245 c -0.22569,0 -0.45059,-0.0103 -0.67522,-0.0103 -0.22516,0 -0.45032,0.0103 -0.67574,0.0103 h -0.0109 v -0.0109 -0.0886 h 0.0109 0.0357 c 0.0929,-0.003 0.18045,-0.009 0.18151,-0.16113 v -1.32424 c -0.001,-0.12515 -0.0881,-0.13388 -0.18151,-0.13573 h -0.0466 v -0.0109 -0.0884 h 0.0109 c 0.13626,0 0.26934,0.0101 0.40454,0.0101 0.12965,0 0.25771,-0.0101 0.38868,-0.0101 h 0.0108 v 0.0111 0.0881 h -0.0108 -0.064 c -0.099,0.003 -0.1606,-0.002 -0.16272,0.12806 v 1.329 c 10e-4,0.0958 0.063,0.12171 0.14314,0.13282 0.045,0.003 0.0926,0.006 0.14155,0.006 0.063,0 0.12753,-0.003 0.19368,-0.0103 0.10451,-0.0122 0.19393,-0.0725 0.23812,-0.13415 0.0392,-0.055 0.0619,-0.12594 0.0773,-0.18203 l 0.002,-0.008 h 0.009 0.0881 l -0.003,0.0138 c -0.0288,0.14738 -0.064,0.29131 -0.095,0.43762 l -0.002,0.009 z m -0.009,-0.0228 v 0 c 0.0296,-0.13943 0.0632,-0.27596 0.0907,-0.41539 h -0.0524 c -0.0161,0.0564 -0.0386,0.12541 -0.0791,0.18203 -0.0479,0.0667 -0.14208,0.12938 -0.2532,0.14314 -0.0669,0.007 -0.13335,0.0106 -0.19633,0.0106 -0.0492,0 -0.0971,-0.003 -0.14366,-0.006 -0.0831,-0.009 -0.16378,-0.045 -0.16352,-0.15505 v -1.32953 c 0,-0.14288 0.09,-0.15029 0.18521,-0.15029 h 0.0532 v -0.0545 c -0.1262,5.3e-4 -0.25056,0.01 -0.37782,0.01 -0.13282,0 -0.26247,-0.009 -0.39344,-0.01 v 0.0545 h 0.0246 c 0.0913,0 0.20346,0.0161 0.20346,0.15796 v 1.32424 c 0,0.16642 -0.11165,0.18362 -0.20346,0.18362 h -0.0246 v 0.0542 c 0.22093,0 0.44265,-0.01 0.66464,-0.01 0.22225,0 0.4445,0.01 0.66569,0.01 z"
         id="path5305" />
      <path
         style="fill:#000000;stroke-width:0.26458332"
         d="m 89.214274,162.89046 c 0.15399,0 0.26934,0.11907 0.26934,0.272 0,0.15213 -0.11535,0.27014 -0.26934,0.27014 -0.15399,0 -0.26935,-0.11801 -0.26935,-0.27014 0,-0.15293 0.11536,-0.272 0.26935,-0.272 z m 0,0.49186 v 0 c 0.12038,0 0.21299,-0.10345 0.21299,-0.2196 0,-0.11695 -0.091,-0.22146 -0.21299,-0.22146 -0.12065,0 -0.21405,0.10451 -0.21405,0.22146 0,0.11615 0.0934,0.2196 0.21405,0.2196 z m -0.13415,-0.0767 v 0 -0.0138 c 0.0333,-0.005 0.0389,-0.003 0.0389,-0.0243 v -0.20056 c 0,-0.028 -0.003,-0.0378 -0.0378,-0.0362 v -0.014 h 0.13759 c 0.0481,0 0.0913,0.0225 0.0913,0.0717 0,0.0405 -0.0265,0.0704 -0.0632,0.082 l 0.0439,0.0622 c 0.0206,0.0278 0.0439,0.0545 0.0595,0.0638 v 0.009 h -0.0521 c -0.0254,0 -0.0476,-0.0534 -0.0974,-0.12542 h -0.0294 v 0.0905 c 0,0.0177 0.006,0.0167 0.0394,0.0212 v 0.0138 h -0.13071 z m 0.091,-0.14288 v 0 h 0.03177 c 0.0347,0 0.0511,-0.027 0.0511,-0.0693 0,-0.0434 -0.0254,-0.0587 -0.0527,-0.0587 h -0.0302 z"
         id="path5307" />
      <path
         style="fill:#000000;stroke-width:0.99999994"
         d="m 224.68555,594.20508 c -9.25599,-0.002 -16.87305,7.01129 -16.87305,17.1543 0,9.28097 7.61706,16.90532 16.87305,16.86132 h 7.87109 v 0.002 c 9.14597,0.0438 17.49219,-7.58233 17.49219,-16.86133 0,-10.14701 -8.34622,-17.15826 -17.49219,-17.15625 z m 0.20312,1.40625 c 8.54102,0.004 15.46386,6.97132 15.46485,15.57031 -9.9e-4,8.59801 -6.92383,15.56831 -15.46485,15.57031 -8.54097,-0.002 -15.46089,-6.97132 -15.46289,-15.57031 0.002,-8.59899 6.92192,-15.56653 15.46289,-15.57031 z m -3.50976,6.36133 c -3.67703,1.42401 -6.28541,5.00897 -6.29297,9.21093 0.008,4.20303 2.61594,7.78503 6.29297,9.20703 z m 7.01757,0 v 18.42187 c 3.67801,-1.42303 6.28737,-5.00488 6.29493,-9.21289 -0.007,-4.20401 -2.61692,-7.78898 -6.29493,-9.20898 z"
         id="path5157"
         transform="scale(0.26458333)" />
    </g>
  </g>
</svg>
