<?xml version="1.0" encoding="utf-8"?>
<!-- Generator: Adobe Illustrator 23.0.3, SVG Export Plug-In . SVG Version: 6.00 Build 0)  -->
<svg version="1.1" id="Layer_1" xmlns="http://www.w3.org/2000/svg" xmlns:xlink="http://www.w3.org/1999/xlink" x="0px" y="0px"
	 viewBox="0 0 180 48.5" style="enable-background:new 0 0 180 48.5;" xml:space="preserve">
<style type="text/css">
	.st0{fill-rule:evenodd;clip-rule:evenodd;fill:#231F20;}
</style>
<path class="st0" d="M24.4,0v24.2v24.2L0,24.2L24.4,0L24.4,0z M24.4,0L24.4,0l24.1,24.4L72.8,0H48.5H24.4L24.4,0z M72.7,48.5
	l24.4-24.2L72.7,0v24.2V48.5L72.7,48.5z M72.7,48.5L72.7,48.5L48.6,24.1L24.3,48.5h24.3H72.7L72.7,48.5z M104.9,34.3h4.5v-8.5h8.7
	v8.5h4.5V14H118v8.3h-8.7V14h-4.5V34.3L104.9,34.3z M124.9,28c0,4.9,3.8,6.8,8,6.8c5.4,0,8.7-2.6,8.7-6.4c0-4.6-4.5-5.4-6-5.9
	c-4.9-1.5-5.6-1.7-5.6-3.3c0-1.7,1.7-2.5,3.1-2.5c2,0,3.2,0.9,3.4,2.9h4.5c0.1-4.4-3.2-6.1-7.7-6.1c-3.9,0-7.9,1.9-7.9,6
	c0,3.8,3.2,5,6.1,5.9c3.2,1,5.4,1,5.4,3.2c0,2-2.2,2.7-3.7,2.7c-2.2,0-3.6-1-3.7-3.5H124.9L124.9,28z M148.3,25.4v5.7h3.6
	c1.8,0,3.6-0.7,3.6-2.8c0-2.1-1.6-2.9-3.5-2.9H148.3L148.3,25.4z M144,34.3V14h8.7c3.6,0,6.9,1.6,6.9,5.4c0,2-1.1,3.6-3.9,4.4
	c3,0.5,4.6,2.2,4.6,4.8c0,4.3-3.9,5.7-7.8,5.7H144L144,34.3z M148.3,17.2v5.2h3.6c1.5,0,3-0.9,3-2.6c0-1.9-1.8-2.6-3.3-2.6H148.3
	L148.3,17.2z M180,20.1c-0.2-4.1-3.5-6.5-8.2-6.5c-6.3,0-9.8,4.2-9.8,10.7c0,6.9,3.3,10.5,9.8,10.5c4.6,0,7.9-2.5,8.1-6.5h-4.6
	c-0.4,2.1-1.8,3.1-3.7,3.1c-3.8,0-5-3.6-5-7c0-3.6,1.5-7.3,5.3-7.3c1.9,0,3.2,1.4,3.4,3.1H180L180,20.1z"/>
</svg>
