<?xml version="1.0" encoding="UTF-8" standalone="no"?>
<svg
   xmlns:dc="http://purl.org/dc/elements/1.1/"
   xmlns:cc="http://creativecommons.org/ns#"
   xmlns:rdf="http://www.w3.org/1999/02/22-rdf-syntax-ns#"
   xmlns:svg="http://www.w3.org/2000/svg"
   xmlns="http://www.w3.org/2000/svg"
   id="svg13856"
   version="1.1"
   viewBox="0 0 26.458334 5.2915114"
   height="5.2915115mm"
   width="26.458334mm">
  <defs
     id="defs13850">
    <clipPath
       id="bjm-2">
      <path
         d="m 478,728 h 16 v 14.438 h -16 z"
         id="path15320-3" />
    </clipPath>
    <clipPath
       id="bjl-2">
      <path
         d="m 492.71,728.03 c 0.875,1.4336 1.3828,3.1211 1.3828,4.9297 0,5.2266 -4.2383,9.4648 -9.4648,9.4648 -2.3516,0 -4.5039,-0.85937 -6.1602,-2.2812 0.0117,0.0156 0.0195,0.0273 0.0273,0.043 1.6523,1.4062 3.793,2.25 6.1328,2.25 5.2383,0 9.4844,-4.2422 9.4844,-9.4766 0,-1.7891 -0.4961,-3.4648 -1.3555,-4.8906 -0.0195,-0.0117 -0.0352,-0.0273 -0.0469,-0.0391"
         id="path15323-6" />
    </clipPath>
    <clipPath
       id="bjk-7">
      <path
         d="m 475.16,732.96 c 0,5.2344 4.2422,9.4766 9.4766,9.4766 5.2383,0 9.4844,-4.2422 9.4844,-9.4766 0,-5.2344 -4.2461,-9.4844 -9.4844,-9.4844 -5.2344,0 -9.4766,4.25 -9.4766,9.4844"
         id="path15326-7" />
    </clipPath>
  </defs>
  <metadata
     id="metadata13853">
    <rdf:RDF>
      <cc:Work
         rdf:about="">
        <dc:format>image/svg+xml</dc:format>
        <dc:type
           rdf:resource="http://purl.org/dc/dcmitype/StillImage" />
        <dc:title></dc:title>
      </cc:Work>
    </rdf:RDF>
  </metadata>
  <g
     transform="translate(186.81475,-103.0576)"
     id="layer1">
    <g
       transform="matrix(0.7055535,0,0,0.7055535,-274.90397,160.29495)"
       id="g7501">
      <path
         style="fill:#000000;stroke-width:0.26458332"
         d="m 124.85128,-79.436809 v 5.812565 h 14.00328 l 0.85421,-4.206462 c 0.0362,-0.182827 0.0648,-0.329277 0.0796,-0.490411 h 0.91209 l -0.10697,0.497645 h 0.014 c 0.28044,-0.402432 0.62546,-0.585494 1.11414,-0.585494 0.91996,0 1.35857,0.636653 1.35857,1.529622 0,1.17819 -0.64035,2.414842 -1.92649,2.414842 -0.42413,0 -0.8624,-0.146558 -1.02061,-0.673346 h -0.014 l -0.30282,1.513604 h 7.65018 l 0.11007,-0.357603 c 0.38047,0.160867 0.74782,0.292489 1.16427,0.292489 1.02103,0 1.17258,-0.724323 1.4025,-1.580782 h -0.015 c -0.24395,0.453763 -0.71151,0.717269 -1.24385,0.717269 -0.89852,0 -1.28623,-0.768429 -1.28623,-1.595252 0,-1.127125 0.67595,-2.261359 1.87637,-2.261359 0.48842,0 0.89843,0.241366 1.12862,0.636653 l 0.10748,-0.548804 h 0.9276 c -0.0288,0.102394 -0.0717,0.285536 -0.12196,0.527101 l -0.58963,2.831867 c -0.10477,0.541602 -0.2711,0.99368 -0.5333,1.337902 h 11.95793 v -5.812046 h -23.24044 l -0.86972,4.049882 c -0.0574,0.321733 -0.11472,0.643821 -0.13642,0.834056 h -0.89866 l 0.0935,-0.556037 h -0.0145 c -0.2876,0.409839 -0.64729,0.643887 -1.2082,0.643887 -0.8771,0 -1.27227,-0.746117 -1.27227,-1.565796 0,-1.127125 0.60381,-2.378665 1.8619,-2.378665 0.47414,0 0.84145,0.183232 1.14308,0.534334 l 0.33693,-1.561661 z m 5.76037,1.027327 c 0.12435,0 0.25616,0.0073 0.37311,0.03669 l -0.20516,0.958598 c -0.1098,-0.03678 -0.24848,-0.05839 -0.3731,-0.05839 -0.69532,0 -1.0319,0.622162 -1.15652,1.229381 l -0.35088,1.690335 h -0.98082 l 0.67334,-3.263884 c 0.0291,-0.160866 0.0584,-0.329194 0.0879,-0.504878 h 0.93638 l -0.13126,0.710034 h 0.0145 c 0.17568,-0.409575 0.65883,-0.797883 1.11259,-0.797883 z m 2.37919,0 c 0.92921,0 1.54357,0.475953 1.54357,1.434536 0,0.285224 -0.0361,0.563216 -0.0951,0.841293 h -2.65669 c 0,0.695325 0.37361,0.951362 1.04697,0.951362 0.40243,3e-6 0.79008,-0.102242 1.156,-0.270782 l -0.12403,0.776179 c -0.38021,0.11747 -0.798,0.212392 -1.20096,0.212392 -1.08241,0 -1.81436,-0.527476 -1.81436,-1.646928 0,-1.170782 0.90712,-2.298052 2.14458,-2.298052 z m 12.53411,0 c 0.7411,0 1.43816,0.278458 1.43816,1.163754 2.7e-4,0.505354 -0.36669,1.983234 -0.4532,2.693373 h -0.81132 l 0.10025,-0.578776 h -0.014 c -0.33073,0.424395 -0.66242,0.666629 -1.19476,0.666629 -0.6686,0 -1.14308,-0.380844 -1.14308,-1.075905 0,-1.243806 1.36652,-1.338937 2.27272,-1.338937 h 0.33745 c 0.0288,-0.102658 0.0289,-0.212405 0.0289,-0.321942 0,-0.380736 -0.40238,-0.490927 -0.74052,-0.490927 -0.42439,0 -0.83495,0.109662 -1.21595,0.292489 l 0.13694,-0.782899 c 0.40984,-0.146315 0.82731,-0.226859 1.25832,-0.226859 z m 8.65167,5.16e-4 c 0.99933,0 1.69706,0.614362 1.69706,1.653646 0,1.324504 -0.89898,2.290818 -2.20814,2.290818 -1.0496,0 -1.68155,-0.658813 -1.68155,-1.719792 0,-1.258623 0.94935,-2.224672 2.19263,-2.224672 z m 4.03438,0 c 0.35242,0 0.71193,0.06538 1.05007,0.153479 l -0.20878,0.738974 c -0.25162,-0.09499 -0.51786,-0.1757 -0.79064,-0.1757 -0.28787,0 -0.647,0.08082 -0.647,0.380855 0,0.475985 1.25109,0.650959 1.25109,1.57303 0,0.980546 -0.84128,1.273826 -1.66863,1.273826 -0.38762,0 -0.77618,-0.05858 -1.12861,-0.226862 l 0.20877,-0.782897 c 0.27331,0.153458 0.54598,0.292489 0.91984,0.292489 0.32411,0 0.66146,-0.109847 0.66146,-0.417028 0,-0.607484 -1.25057,-0.666205 -1.25057,-1.610239 0,-0.88556 0.84073,-1.199927 1.603,-1.199927 z m -25.23463,0.716753 c -0.60775,0 -0.87172,0.36584 -1.06195,0.885217 h 1.66191 c 0.015,-0.08784 0.0219,-0.167688 0.0222,-0.255799 0,-0.402432 -0.21234,-0.629418 -0.62218,-0.629418 z m 21.1279,0.04392 c -0.77522,0 -1.16271,0.856086 -1.16271,1.536859 0,0.497681 0.20409,0.885732 0.76791,0.885732 0.76121,0 1.14153,-0.877874 1.14153,-1.52187 2.6e-4,-0.490538 -0.16834,-0.900721 -0.74673,-0.900721 z m -17.27956,5.18e-4 c -0.6903,0 -1.01389,0.965806 -1.01389,1.529104 0,0.380736 0.1147,0.892969 0.58963,0.892969 0.70379,0 1.12138,-0.834562 1.12138,-1.529622 0,-0.438944 -0.20817,-0.892451 -0.69712,-0.892451 z m 4.57285,0 c -0.66595,0 -1.0387,0.878044 -1.0387,1.536856 2.6e-4,0.4826 0.16896,0.885217 0.64389,0.885217 0.81941,0 1.08262,-1.024816 1.08262,-1.616956 0,-0.461169 -0.23405,-0.805117 -0.68781,-0.805117 z m 8.22792,0 c -0.70961,-2.67e-4 -1.01699,0.929103 -1.01699,1.49293 0,0.453763 0.18271,0.841293 0.62218,0.841293 0.7829,0 1.10484,-0.826807 1.10484,-1.544092 0,-0.439208 -0.25627,-0.790131 -0.71003,-0.790131 z m -4.19458,1.353921 c -0.47546,0 -1.26555,0.07963 -1.26555,0.716754 0,0.26326 0.24893,0.395324 0.49764,0.395324 0.73183,0 0.95861,-0.504859 1.1126,-1.112078 z"
         id="path5755" />
      <path
         style="fill:#000000;fill-opacity:0.58823529;stroke-width:0.26458332"
         d="m 124.85122,-81.124046 v 1.687237 h 13.29531 l -0.33692,1.561661 c -0.30163,-0.351102 -0.66895,-0.534334 -1.14309,-0.534334 -1.25809,0 -1.8619,1.25154 -1.8619,2.378665 0,0.819679 0.39518,1.565796 1.27227,1.565796 0.56091,0 0.9206,-0.234048 1.2082,-0.643887 h 0.0145 l -0.0935,0.556037 h 0.89865 c 0.0217,-0.190235 0.079,-0.512323 0.13643,-0.834056 l 0.86971,-4.049882 h 23.24045 v -1.687237 h -5.3e-4 z m 5.76037,2.714564 c -0.45376,0 -0.93691,0.388307 -1.11259,0.797882 h -0.0145 l 0.13126,-0.710033 h -0.93638 c -0.0294,0.175684 -0.0588,0.344012 -0.0879,0.504878 l -0.67334,3.263884 h 0.98081 l 0.35089,-1.690335 c 0.12462,-0.607219 0.4612,-1.229381 1.15652,-1.229381 0.12462,0 0.2633,0.02162 0.3731,0.05839 l 0.20516,-0.9586 c -0.11695,-0.02937 -0.24876,-0.03669 -0.37311,-0.03669 z m 2.37919,0 c -1.23746,0 -2.14457,1.12727 -2.14457,2.298051 0,1.119453 0.73194,1.646929 1.81436,1.646929 0.40296,0 0.82075,-0.09492 1.20095,-0.212392 l 0.12403,-0.776179 c -0.36592,0.168539 -0.75356,0.270785 -1.156,0.270782 -0.67336,0 -1.04697,-0.256037 -1.04697,-0.951362 h 2.65669 c 0.059,-0.278077 0.0951,-0.556069 0.0951,-0.841293 0,-0.958583 -0.61436,-1.434536 -1.54357,-1.434536 z m -0.0145,0.717269 c 0.40983,0 0.62218,0.226986 0.62218,0.629418 -2.7e-4,0.08811 -0.007,0.167957 -0.0222,0.255799 h -1.66191 c 0.19024,-0.519377 0.4542,-0.885217 1.06195,-0.885217 z m 3.84834,0.04444 c 0.48895,0 0.69712,0.453507 0.69712,0.89245 0,0.695061 -0.41759,1.529623 -1.12138,1.529623 -0.47494,0 -0.58963,-0.512233 -0.58963,-0.892969 0,-0.563298 0.32359,-1.529104 1.01389,-1.529104 z"
         id="path5765-9" />
    </g>
  </g>
</svg>
